solid OpenSCAD_Model
  facet normal -1 0 0
    outer loop
      vertex 22.25 0 4.125
      vertex 22.25 1.2 0
      vertex 22.25 0 0
    endloop
  endfacet
  facet normal -1 0 0
    outer loop
      vertex 22.25 1.2 0
      vertex 22.25 0 4.125
      vertex 22.25 1.2 5.875
    endloop
  endfacet
  facet normal -1 0 0
    outer loop
      vertex 22.25 0 4.125
      vertex 22.25 0 5.875
      vertex 22.25 1.2 5.875
    endloop
  endfacet
  facet normal -1 0 0
    outer loop
      vertex 22.25 -0.181922 4.14412
      vertex 22.25 0 5.875
      vertex 22.25 0 4.125
    endloop
  endfacet
  facet normal -1 0 0
    outer loop
      vertex 22.25 -0.181922 4.14412
      vertex 22.25 -0.181922 5.85588
      vertex 22.25 0 5.875
    endloop
  endfacet
  facet normal -1 0 0
    outer loop
      vertex 22.25 -0.355894 4.20065
      vertex 22.25 -0.181922 5.85588
      vertex 22.25 -0.181922 4.14412
    endloop
  endfacet
  facet normal -1 0 0
    outer loop
      vertex 22.25 -0.355894 4.20065
      vertex 22.25 -0.355894 5.79935
      vertex 22.25 -0.181922 5.85588
    endloop
  endfacet
  facet normal -1 0 0
    outer loop
      vertex 22.25 -0.514312 4.29211
      vertex 22.25 -0.355894 5.79935
      vertex 22.25 -0.355894 4.20065
    endloop
  endfacet
  facet normal -1 0 0
    outer loop
      vertex 22.25 -0.514312 4.29211
      vertex 22.25 -0.514312 5.70789
      vertex 22.25 -0.355894 5.79935
    endloop
  endfacet
  facet normal -1 0 0
    outer loop
      vertex 22.25 -0.650251 4.41451
      vertex 22.25 -0.514312 5.70789
      vertex 22.25 -0.514312 4.29211
    endloop
  endfacet
  facet normal -1 0 0
    outer loop
      vertex 22.25 -0.650251 4.41451
      vertex 22.25 -0.650251 5.58549
      vertex 22.25 -0.514312 5.70789
    endloop
  endfacet
  facet normal -1 0 0
    outer loop
      vertex 22.25 -0.757771 4.5625
      vertex 22.25 -0.650251 5.58549
      vertex 22.25 -0.650251 4.41451
    endloop
  endfacet
  facet normal -1 0 0
    outer loop
      vertex 22.25 -0.757771 4.5625
      vertex 22.25 -0.757771 5.4375
      vertex 22.25 -0.650251 5.58549
    endloop
  endfacet
  facet normal -1 0 0
    outer loop
      vertex 22.25 -0.832174 4.72961
      vertex 22.25 -0.757771 5.4375
      vertex 22.25 -0.757771 4.5625
    endloop
  endfacet
  facet normal -1 0 0
    outer loop
      vertex 22.25 -0.832174 4.72961
      vertex 22.25 -0.832174 5.27039
      vertex 22.25 -0.757771 5.4375
    endloop
  endfacet
  facet normal -1 0 0
    outer loop
      vertex 22.25 -0.870206 4.90854
      vertex 22.25 -0.832174 5.27039
      vertex 22.25 -0.832174 4.72961
    endloop
  endfacet
  facet normal -1 0 0
    outer loop
      vertex 22.25 -0.832174 5.27039
      vertex 22.25 -0.870206 4.90854
      vertex 22.25 -0.870206 5.09146
    endloop
  endfacet
  facet normal -0 0 1
    outer loop
      vertex 22.25 1.2 5.875
      vertex 27.75 0 5.875
      vertex 27.75 1.2 5.875
    endloop
  endfacet
  facet normal 0 0 1
    outer loop
      vertex 27.75 0 5.875
      vertex 22.25 1.2 5.875
      vertex 22.25 0 5.875
    endloop
  endfacet
  facet normal 1 -0 0
    outer loop
      vertex 27.75 -0.181922 5.85588
      vertex 27.75 0 4.125
      vertex 27.75 0 5.875
    endloop
  endfacet
  facet normal 1 0 0
    outer loop
      vertex 27.75 -0.181922 5.85588
      vertex 27.75 -0.181922 4.14412
      vertex 27.75 0 4.125
    endloop
  endfacet
  facet normal 1 -0 0
    outer loop
      vertex 27.75 -0.355894 5.79935
      vertex 27.75 -0.181922 4.14412
      vertex 27.75 -0.181922 5.85588
    endloop
  endfacet
  facet normal 1 0 0
    outer loop
      vertex 27.75 -0.355894 5.79935
      vertex 27.75 -0.355894 4.20065
      vertex 27.75 -0.181922 4.14412
    endloop
  endfacet
  facet normal 1 -0 0
    outer loop
      vertex 27.75 -0.514312 5.70789
      vertex 27.75 -0.355894 4.20065
      vertex 27.75 -0.355894 5.79935
    endloop
  endfacet
  facet normal 1 0 0
    outer loop
      vertex 27.75 -0.514312 5.70789
      vertex 27.75 -0.514312 4.29211
      vertex 27.75 -0.355894 4.20065
    endloop
  endfacet
  facet normal 1 -0 0
    outer loop
      vertex 27.75 -0.650251 5.58549
      vertex 27.75 -0.514312 4.29211
      vertex 27.75 -0.514312 5.70789
    endloop
  endfacet
  facet normal 1 0 0
    outer loop
      vertex 27.75 -0.650251 5.58549
      vertex 27.75 -0.650251 4.41451
      vertex 27.75 -0.514312 4.29211
    endloop
  endfacet
  facet normal 1 -0 0
    outer loop
      vertex 27.75 -0.757771 5.4375
      vertex 27.75 -0.650251 4.41451
      vertex 27.75 -0.650251 5.58549
    endloop
  endfacet
  facet normal 1 0 0
    outer loop
      vertex 27.75 -0.757771 5.4375
      vertex 27.75 -0.757771 4.5625
      vertex 27.75 -0.650251 4.41451
    endloop
  endfacet
  facet normal 1 -0 0
    outer loop
      vertex 27.75 -0.832174 5.27039
      vertex 27.75 -0.757771 4.5625
      vertex 27.75 -0.757771 5.4375
    endloop
  endfacet
  facet normal 1 0 0
    outer loop
      vertex 27.75 -0.832174 5.27039
      vertex 27.75 -0.832174 4.72961
      vertex 27.75 -0.757771 4.5625
    endloop
  endfacet
  facet normal 1 -0 0
    outer loop
      vertex 27.75 -0.870206 5.09146
      vertex 27.75 -0.832174 4.72961
      vertex 27.75 -0.832174 5.27039
    endloop
  endfacet
  facet normal 1 0 0
    outer loop
      vertex 27.75 -0.832174 4.72961
      vertex 27.75 -0.870206 5.09146
      vertex 27.75 -0.870206 4.90854
    endloop
  endfacet
  facet normal 1 0 0
    outer loop
      vertex 27.75 0 4.125
      vertex 27.75 1.2 5.875
      vertex 27.75 0 5.875
    endloop
  endfacet
  facet normal 1 0 0
    outer loop
      vertex 27.75 1.2 5.875
      vertex 27.75 0 4.125
      vertex 27.75 1.2 0
    endloop
  endfacet
  facet normal 1 0 0
    outer loop
      vertex 27.75 1.2 0
      vertex 27.75 0 4.125
      vertex 27.75 0 0
    endloop
  endfacet
  facet normal 0 1 -0
    outer loop
      vertex 27.75 1.2 0
      vertex 22.25 1.2 5.875
      vertex 27.75 1.2 5.875
    endloop
  endfacet
  facet normal 0 1 0
    outer loop
      vertex 22.25 1.2 5.875
      vertex 27.75 1.2 0
      vertex 22.25 1.2 0
    endloop
  endfacet
  facet normal 0 0 1
    outer loop
      vertex 49.3231 36.2117 0
      vertex 22.25 35 0
      vertex 27.75 35 0
    endloop
  endfacet
  facet normal 0 0 1
    outer loop
      vertex 22.25 35 0
      vertex 13 31.95 0
      vertex 22.25 33.8 0
    endloop
  endfacet
  facet normal -0 0 1
    outer loop
      vertex -1.2 34.085 0
      vertex 13 31.95 0
      vertex 0.67692 36.2117 0
    endloop
  endfacet
  facet normal 0 0 1
    outer loop
      vertex 22.25 35 0
      vertex 0.67692 36.2117 0
      vertex 13 31.95 0
    endloop
  endfacet
  facet normal -0 0 1
    outer loop
      vertex 0.67692 36.2117 0
      vertex 22.25 35 0
      vertex 49.3231 36.2117 0
    endloop
  endfacet
  facet normal 0 0 1
    outer loop
      vertex 49.3231 36.2117 0
      vertex 51.2 34.085 0
      vertex 49.7517 36.1188 0
    endloop
  endfacet
  facet normal 0 0 1
    outer loop
      vertex 51.2 34.085 0
      vertex 49.3231 36.2117 0
      vertex 50 31.95 0
    endloop
  endfacet
  facet normal 0 0 1
    outer loop
      vertex 27.75 33.8 0
      vertex 49.3231 36.2117 0
      vertex 27.75 35 0
    endloop
  endfacet
  facet normal 0 0 1
    outer loop
      vertex 49.3231 36.2117 0
      vertex 27.75 33.8 0
      vertex 50 31.95 0
    endloop
  endfacet
  facet normal 0 0 1
    outer loop
      vertex 13 31.95 0
      vertex 27.75 33.8 0
      vertex 22.25 33.8 0
    endloop
  endfacet
  facet normal 0 0 1
    outer loop
      vertex 27.75 33.8 0
      vertex 13 31.95 0
      vertex 50 31.95 0
    endloop
  endfacet
  facet normal 0 0 1
    outer loop
      vertex 50.152 35.9369 0
      vertex 51.2 34.085 0
      vertex 51.1542 34.5296 0
    endloop
  endfacet
  facet normal 0 0 1
    outer loop
      vertex 50.152 35.9369 0
      vertex 51.1542 34.5296 0
      vertex 51.0188 34.9548 0
    endloop
  endfacet
  facet normal 0 0 1
    outer loop
      vertex 50.152 35.9369 0
      vertex 51.0188 34.9548 0
      vertex 50.7997 35.3419 0
    endloop
  endfacet
  facet normal 0 0 1
    outer loop
      vertex 50.152 35.9369 0
      vertex 50.7997 35.3419 0
      vertex 50.5065 35.6742 0
    endloop
  endfacet
  facet normal 0 0 1
    outer loop
      vertex 49.7517 36.1188 0
      vertex 51.2 34.085 0
      vertex 50.152 35.9369 0
    endloop
  endfacet
  facet normal 0 0 1
    outer loop
      vertex 51.2 34.085 0
      vertex 50 31.95 0
      vertex 50 30.75 0
    endloop
  endfacet
  facet normal 0 0 1
    outer loop
      vertex 51.2 34.085 0
      vertex 50 30.75 0
      vertex 51.2 22.5 0
    endloop
  endfacet
  facet normal 0 0 1
    outer loop
      vertex 50 30.75 0
      vertex 42.7 22.5 0
      vertex 51.2 22.5 0
    endloop
  endfacet
  facet normal 0 0 1
    outer loop
      vertex 42.7 22.5 0
      vertex 27.2 22.5 0
      vertex 42.7 12.5 0
    endloop
  endfacet
  facet normal 0 0 1
    outer loop
      vertex 50 30.75 0
      vertex 27.2 22.5 0
      vertex 42.7 22.5 0
    endloop
  endfacet
  facet normal -0 0 1
    outer loop
      vertex 15 30.75 0
      vertex 27.2 22.5 0
      vertex 50 30.75 0
    endloop
  endfacet
  facet normal 0 0 1
    outer loop
      vertex 26.4 22.5 0
      vertex 15 30.75 0
      vertex 26.4 12.5 0
    endloop
  endfacet
  facet normal 0 0 1
    outer loop
      vertex 27.2 22.5 0
      vertex 15 30.75 0
      vertex 26.4 22.5 0
    endloop
  endfacet
  facet normal -0 0 1
    outer loop
      vertex 50 4.25 0
      vertex 51.2 0.938483 0
      vertex 51.2 12.5 0
    endloop
  endfacet
  facet normal -0 0 1
    outer loop
      vertex 50 3.05 0
      vertex 51.2 0.938483 0
      vertex 50 4.25 0
    endloop
  endfacet
  facet normal 0 0 1
    outer loop
      vertex 49.3231 -1.18827 0
      vertex 51.2 0.938483 0
      vertex 50 3.05 0
    endloop
  endfacet
  facet normal 0 0 1
    outer loop
      vertex 51.2 0.938483 0
      vertex 49.3231 -1.18827 0
      vertex 51.1542 0.493874 0
    endloop
  endfacet
  facet normal 0 0 1
    outer loop
      vertex 51.1542 0.493874 0
      vertex 49.3231 -1.18827 0
      vertex 51.0188 0.068696 0
    endloop
  endfacet
  facet normal 0 0 1
    outer loop
      vertex 51.0188 0.068696 0
      vertex 49.3231 -1.18827 0
      vertex 50.7997 -0.318482 0
    endloop
  endfacet
  facet normal -0 0 1
    outer loop
      vertex 42.7 12.5 0
      vertex 50 4.25 0
      vertex 51.2 12.5 0
    endloop
  endfacet
  facet normal 0 0 1
    outer loop
      vertex 27.2 12.5 0
      vertex 42.7 12.5 0
      vertex 27.2 22.5 0
    endloop
  endfacet
  facet normal 0 0 1
    outer loop
      vertex 42.7 12.5 0
      vertex 27.2 12.5 0
      vertex 50 4.25 0
    endloop
  endfacet
  facet normal 0 0 1
    outer loop
      vertex 15 4.25 0
      vertex 27.2 12.5 0
      vertex 26.4 12.5 0
    endloop
  endfacet
  facet normal 0 0 1
    outer loop
      vertex 27.2 12.5 0
      vertex 15 4.25 0
      vertex 50 4.25 0
    endloop
  endfacet
  facet normal 0 0 1
    outer loop
      vertex 15 4.25 0
      vertex 26.4 12.5 0
      vertex 15 30.75 0
    endloop
  endfacet
  facet normal 0 0 1
    outer loop
      vertex 50.7997 -0.318482 0
      vertex 49.3231 -1.18827 0
      vertex 50.5065 -0.650711 0
    endloop
  endfacet
  facet normal 0 0 1
    outer loop
      vertex 50.5065 -0.650711 0
      vertex 49.3231 -1.18827 0
      vertex 50.152 -0.913486 0
    endloop
  endfacet
  facet normal 0 0 1
    outer loop
      vertex 50.152 -0.913486 0
      vertex 49.3231 -1.18827 0
      vertex 49.7517 -1.09532 0
    endloop
  endfacet
  facet normal 0 0 1
    outer loop
      vertex 50 3.05 0
      vertex 27.75 1.2 0
      vertex 49.3231 -1.18827 0
    endloop
  endfacet
  facet normal -0 0 1
    outer loop
      vertex 13 3.05 0
      vertex 27.75 1.2 0
      vertex 50 3.05 0
    endloop
  endfacet
  facet normal 0 0 1
    outer loop
      vertex 22.25 1.2 0
      vertex 13 3.05 0
      vertex 22.25 0 0
    endloop
  endfacet
  facet normal 0 0 1
    outer loop
      vertex 27.75 1.2 0
      vertex 13 3.05 0
      vertex 22.25 1.2 0
    endloop
  endfacet
  facet normal -0 0 1
    outer loop
      vertex 27.75 0 0
      vertex 49.3231 -1.18827 0
      vertex 27.75 1.2 0
    endloop
  endfacet
  facet normal -0 0 1
    outer loop
      vertex 22.25 0 0
      vertex 49.3231 -1.18827 0
      vertex 27.75 0 0
    endloop
  endfacet
  facet normal 0 0 1
    outer loop
      vertex 22.25 0 0
      vertex 0.67692 -1.18827 0
      vertex 49.3231 -1.18827 0
    endloop
  endfacet
  facet normal 0 0 1
    outer loop
      vertex 13 3.05 0
      vertex 0.67692 -1.18827 0
      vertex 22.25 0 0
    endloop
  endfacet
  facet normal 0 0 1
    outer loop
      vertex 13 31.95 0
      vertex -1.2 34.085 0
      vertex 13 3.05 0
    endloop
  endfacet
  facet normal 0 0 1
    outer loop
      vertex -1.2 34.085 0
      vertex 0.67692 36.2117 0
      vertex 0.248307 36.1188 0
    endloop
  endfacet
  facet normal 0 0 1
    outer loop
      vertex -1.2 0.938483 0
      vertex 13 3.05 0
      vertex -1.2 34.085 0
    endloop
  endfacet
  facet normal 0 0 1
    outer loop
      vertex -1.2 34.085 0
      vertex 0.248307 36.1188 0
      vertex -0.151983 35.9369 0
    endloop
  endfacet
  facet normal 0 0 1
    outer loop
      vertex 13 3.05 0
      vertex -1.2 0.938483 0
      vertex 0.67692 -1.18827 0
    endloop
  endfacet
  facet normal 0 0 1
    outer loop
      vertex -1.2 34.085 0
      vertex -0.151983 35.9369 0
      vertex -0.506493 35.6742 0
    endloop
  endfacet
  facet normal 0 0 1
    outer loop
      vertex 0.67692 -1.18827 0
      vertex -1.2 0.938483 0
      vertex 0.248307 -1.09532 0
    endloop
  endfacet
  facet normal 0 0 1
    outer loop
      vertex -1.2 34.085 0
      vertex -0.506493 35.6742 0
      vertex -0.799691 35.3419 0
    endloop
  endfacet
  facet normal 0 0 1
    outer loop
      vertex 0.248307 -1.09532 0
      vertex -1.2 0.938483 0
      vertex -0.151999 -0.913486 0
    endloop
  endfacet
  facet normal 0 0 1
    outer loop
      vertex -1.2 34.085 0
      vertex -0.799691 35.3419 0
      vertex -1.01879 34.9548 0
    endloop
  endfacet
  facet normal 0 0 1
    outer loop
      vertex -0.151999 -0.913486 0
      vertex -1.2 0.938483 0
      vertex -0.506493 -0.650711 0
    endloop
  endfacet
  facet normal 0 0 1
    outer loop
      vertex -1.2 34.085 0
      vertex -1.01879 34.9548 0
      vertex -1.15418 34.5296 0
    endloop
  endfacet
  facet normal 0 0 1
    outer loop
      vertex -0.506493 -0.650711 0
      vertex -1.2 0.938483 0
      vertex -0.799691 -0.318482 0
    endloop
  endfacet
  facet normal 0 0 1
    outer loop
      vertex -0.799691 -0.318482 0
      vertex -1.2 0.938483 0
      vertex -1.01879 0.068696 0
    endloop
  endfacet
  facet normal 0 0 1
    outer loop
      vertex -1.01879 0.068696 0
      vertex -1.2 0.938483 0
      vertex -1.15418 0.493874 0
    endloop
  endfacet
  facet normal 0 -1 0
    outer loop
      vertex 22.25 0 0
      vertex 27.75 0 4.125
      vertex 22.25 0 4.125
    endloop
  endfacet
  facet normal 0 -1 -0
    outer loop
      vertex 27.75 0 4.125
      vertex 22.25 0 0
      vertex 27.75 0 0
    endloop
  endfacet
  facet normal 0 -0.104525 -0.994522
    outer loop
      vertex 22.25 -0.181922 4.14412
      vertex 27.75 0 4.125
      vertex 27.75 -0.181922 4.14412
    endloop
  endfacet
  facet normal -0 -0.104525 -0.994522
    outer loop
      vertex 27.75 0 4.125
      vertex 22.25 -0.181922 4.14412
      vertex 22.25 0 4.125
    endloop
  endfacet
  facet normal 0 -0.309018 -0.951056
    outer loop
      vertex 22.25 -0.355894 4.20065
      vertex 27.75 -0.181922 4.14412
      vertex 27.75 -0.355894 4.20065
    endloop
  endfacet
  facet normal -0 -0.309018 -0.951056
    outer loop
      vertex 27.75 -0.181922 4.14412
      vertex 22.25 -0.355894 4.20065
      vertex 22.25 -0.181922 4.14412
    endloop
  endfacet
  facet normal 0 -0.809018 0.587784
    outer loop
      vertex 22.25 -0.757771 5.4375
      vertex 27.75 -0.650251 5.58549
      vertex 22.25 -0.650251 5.58549
    endloop
  endfacet
  facet normal 0 -0.809018 0.587784
    outer loop
      vertex 27.75 -0.650251 5.58549
      vertex 22.25 -0.757771 5.4375
      vertex 27.75 -0.757771 5.4375
    endloop
  endfacet
  facet normal 0 -0.309018 0.951056
    outer loop
      vertex 22.25 -0.181922 5.85588
      vertex 27.75 -0.355894 5.79935
      vertex 27.75 -0.181922 5.85588
    endloop
  endfacet
  facet normal 0 -0.309018 0.951056
    outer loop
      vertex 27.75 -0.355894 5.79935
      vertex 22.25 -0.181922 5.85588
      vertex 22.25 -0.355894 5.79935
    endloop
  endfacet
  facet normal 0 -0.104531 0.994522
    outer loop
      vertex 22.25 0 5.875
      vertex 27.75 -0.181922 5.85588
      vertex 27.75 0 5.875
    endloop
  endfacet
  facet normal 0 -0.104531 0.994522
    outer loop
      vertex 27.75 -0.181922 5.85588
      vertex 22.25 0 5.875
      vertex 22.25 -0.181922 5.85588
    endloop
  endfacet
  facet normal 0 -0.66913 0.743146
    outer loop
      vertex 22.25 -0.514312 5.70789
      vertex 27.75 -0.650251 5.58549
      vertex 27.75 -0.514312 5.70789
    endloop
  endfacet
  facet normal 0 -0.66913 0.743146
    outer loop
      vertex 27.75 -0.650251 5.58549
      vertex 22.25 -0.514312 5.70789
      vertex 22.25 -0.650251 5.58549
    endloop
  endfacet
  facet normal 0 -0.978148 -0.207908
    outer loop
      vertex 22.25 -0.832174 4.72961
      vertex 27.75 -0.870206 4.90854
      vertex 22.25 -0.870206 4.90854
    endloop
  endfacet
  facet normal 0 -0.978148 -0.207908
    outer loop
      vertex 27.75 -0.870206 4.90854
      vertex 22.25 -0.832174 4.72961
      vertex 27.75 -0.832174 4.72961
    endloop
  endfacet
  facet normal 0 -0.913544 -0.406741
    outer loop
      vertex 22.25 -0.757771 4.5625
      vertex 27.75 -0.832174 4.72961
      vertex 22.25 -0.832174 4.72961
    endloop
  endfacet
  facet normal 0 -0.913544 -0.406741
    outer loop
      vertex 27.75 -0.832174 4.72961
      vertex 22.25 -0.757771 4.5625
      vertex 27.75 -0.757771 4.5625
    endloop
  endfacet
  facet normal 0 -0.66913 -0.743146
    outer loop
      vertex 22.25 -0.650251 4.41451
      vertex 27.75 -0.514312 4.29211
      vertex 27.75 -0.650251 4.41451
    endloop
  endfacet
  facet normal -0 -0.66913 -0.743146
    outer loop
      vertex 27.75 -0.514312 4.29211
      vertex 22.25 -0.650251 4.41451
      vertex 22.25 -0.514312 4.29211
    endloop
  endfacet
  facet normal 0 -0.80902 -0.587781
    outer loop
      vertex 22.25 -0.650251 4.41451
      vertex 27.75 -0.757771 4.5625
      vertex 22.25 -0.757771 4.5625
    endloop
  endfacet
  facet normal 0 -0.80902 -0.587781
    outer loop
      vertex 27.75 -0.757771 4.5625
      vertex 22.25 -0.650251 4.41451
      vertex 27.75 -0.650251 4.41451
    endloop
  endfacet
  facet normal 0 -0.499998 -0.866026
    outer loop
      vertex 22.25 -0.514312 4.29211
      vertex 27.75 -0.355894 4.20065
      vertex 27.75 -0.514312 4.29211
    endloop
  endfacet
  facet normal -0 -0.499998 -0.866026
    outer loop
      vertex 27.75 -0.355894 4.20065
      vertex 22.25 -0.514312 4.29211
      vertex 22.25 -0.355894 4.20065
    endloop
  endfacet
  facet normal 0 -0.913545 0.406739
    outer loop
      vertex 22.25 -0.832174 5.27039
      vertex 27.75 -0.757771 5.4375
      vertex 22.25 -0.757771 5.4375
    endloop
  endfacet
  facet normal 0 -0.913545 0.406739
    outer loop
      vertex 27.75 -0.757771 5.4375
      vertex 22.25 -0.832174 5.27039
      vertex 27.75 -0.832174 5.27039
    endloop
  endfacet
  facet normal 0 -1 0
    outer loop
      vertex 22.25 -0.870206 4.90854
      vertex 27.75 -0.870206 5.09146
      vertex 22.25 -0.870206 5.09146
    endloop
  endfacet
  facet normal 0 -1 -0
    outer loop
      vertex 27.75 -0.870206 5.09146
      vertex 22.25 -0.870206 4.90854
      vertex 27.75 -0.870206 4.90854
    endloop
  endfacet
  facet normal 0 -0.978148 0.207908
    outer loop
      vertex 22.25 -0.870206 5.09146
      vertex 27.75 -0.832174 5.27039
      vertex 22.25 -0.832174 5.27039
    endloop
  endfacet
  facet normal 0 -0.978148 0.207908
    outer loop
      vertex 27.75 -0.832174 5.27039
      vertex 22.25 -0.870206 5.09146
      vertex 27.75 -0.870206 5.09146
    endloop
  endfacet
  facet normal 0 -0.499998 0.866026
    outer loop
      vertex 22.25 -0.355894 5.79935
      vertex 27.75 -0.514312 5.70789
      vertex 27.75 -0.355894 5.79935
    endloop
  endfacet
  facet normal 0 -0.499998 0.866026
    outer loop
      vertex 27.75 -0.514312 5.70789
      vertex 22.25 -0.355894 5.79935
      vertex 22.25 -0.514312 5.70789
    endloop
  endfacet
  facet normal -1 0 0
    outer loop
      vertex 22.25 33.8 0
      vertex 22.25 35 4.125
      vertex 22.25 35 0
    endloop
  endfacet
  facet normal -1 0 0
    outer loop
      vertex 22.25 33.8 5.875
      vertex 22.25 35 4.125
      vertex 22.25 33.8 0
    endloop
  endfacet
  facet normal -1 0 0
    outer loop
      vertex 22.25 35 4.125
      vertex 22.25 33.8 5.875
      vertex 22.25 35 5.875
    endloop
  endfacet
  facet normal -1 0 0
    outer loop
      vertex 22.25 35.8322 4.72961
      vertex 22.25 35.8702 5.09146
      vertex 22.25 35.8702 4.90854
    endloop
  endfacet
  facet normal -1 0 0
    outer loop
      vertex 22.25 35.8322 4.72961
      vertex 22.25 35.8322 5.27039
      vertex 22.25 35.8702 5.09146
    endloop
  endfacet
  facet normal -1 0 0
    outer loop
      vertex 22.25 35.7578 4.5625
      vertex 22.25 35.8322 5.27039
      vertex 22.25 35.8322 4.72961
    endloop
  endfacet
  facet normal -1 0 0
    outer loop
      vertex 22.25 35.7578 4.5625
      vertex 22.25 35.7578 5.4375
      vertex 22.25 35.8322 5.27039
    endloop
  endfacet
  facet normal -1 0 0
    outer loop
      vertex 22.25 35.6503 4.41451
      vertex 22.25 35.7578 5.4375
      vertex 22.25 35.7578 4.5625
    endloop
  endfacet
  facet normal -1 0 0
    outer loop
      vertex 22.25 35.6503 4.41451
      vertex 22.25 35.6503 5.58549
      vertex 22.25 35.7578 5.4375
    endloop
  endfacet
  facet normal -1 0 0
    outer loop
      vertex 22.25 35.5143 4.29211
      vertex 22.25 35.6503 5.58549
      vertex 22.25 35.6503 4.41451
    endloop
  endfacet
  facet normal -1 0 0
    outer loop
      vertex 22.25 35.5143 4.29211
      vertex 22.25 35.5143 5.70789
      vertex 22.25 35.6503 5.58549
    endloop
  endfacet
  facet normal -1 0 0
    outer loop
      vertex 22.25 35.3559 4.20065
      vertex 22.25 35.5143 5.70789
      vertex 22.25 35.5143 4.29211
    endloop
  endfacet
  facet normal -1 0 0
    outer loop
      vertex 22.25 35.3559 4.20065
      vertex 22.25 35.3559 5.79935
      vertex 22.25 35.5143 5.70789
    endloop
  endfacet
  facet normal -1 0 0
    outer loop
      vertex 22.25 35.1819 4.14412
      vertex 22.25 35.3559 5.79935
      vertex 22.25 35.3559 4.20065
    endloop
  endfacet
  facet normal -1 0 0
    outer loop
      vertex 22.25 35.1819 4.14412
      vertex 22.25 35.1819 5.85588
      vertex 22.25 35.3559 5.79935
    endloop
  endfacet
  facet normal -1 0 0
    outer loop
      vertex 22.25 35 4.125
      vertex 22.25 35.1819 5.85588
      vertex 22.25 35.1819 4.14412
    endloop
  endfacet
  facet normal -1 -0 0
    outer loop
      vertex 22.25 35.1819 5.85588
      vertex 22.25 35 4.125
      vertex 22.25 35 5.875
    endloop
  endfacet
  facet normal -0 0 1
    outer loop
      vertex 22.25 35 5.875
      vertex 27.75 33.8 5.875
      vertex 27.75 35 5.875
    endloop
  endfacet
  facet normal 0 0 1
    outer loop
      vertex 27.75 33.8 5.875
      vertex 22.25 35 5.875
      vertex 22.25 33.8 5.875
    endloop
  endfacet
  facet normal 1 0 0
    outer loop
      vertex 27.75 35.8322 5.27039
      vertex 27.75 35.8702 4.90854
      vertex 27.75 35.8702 5.09146
    endloop
  endfacet
  facet normal 1 0 0
    outer loop
      vertex 27.75 35.8322 5.27039
      vertex 27.75 35.8322 4.72961
      vertex 27.75 35.8702 4.90854
    endloop
  endfacet
  facet normal 1 0 0
    outer loop
      vertex 27.75 35.7578 5.4375
      vertex 27.75 35.8322 4.72961
      vertex 27.75 35.8322 5.27039
    endloop
  endfacet
  facet normal 1 0 0
    outer loop
      vertex 27.75 35.7578 5.4375
      vertex 27.75 35.7578 4.5625
      vertex 27.75 35.8322 4.72961
    endloop
  endfacet
  facet normal 1 0 0
    outer loop
      vertex 27.75 35.6503 5.58549
      vertex 27.75 35.7578 4.5625
      vertex 27.75 35.7578 5.4375
    endloop
  endfacet
  facet normal 1 0 0
    outer loop
      vertex 27.75 35.6503 5.58549
      vertex 27.75 35.6503 4.41451
      vertex 27.75 35.7578 4.5625
    endloop
  endfacet
  facet normal 1 0 0
    outer loop
      vertex 27.75 35.5143 5.70789
      vertex 27.75 35.6503 4.41451
      vertex 27.75 35.6503 5.58549
    endloop
  endfacet
  facet normal 1 0 0
    outer loop
      vertex 27.75 35.5143 5.70789
      vertex 27.75 35.5143 4.29211
      vertex 27.75 35.6503 4.41451
    endloop
  endfacet
  facet normal 1 0 0
    outer loop
      vertex 27.75 35.3559 5.79935
      vertex 27.75 35.5143 4.29211
      vertex 27.75 35.5143 5.70789
    endloop
  endfacet
  facet normal 1 0 0
    outer loop
      vertex 27.75 35.3559 5.79935
      vertex 27.75 35.3559 4.20065
      vertex 27.75 35.5143 4.29211
    endloop
  endfacet
  facet normal 1 0 0
    outer loop
      vertex 27.75 35.1819 5.85588
      vertex 27.75 35.3559 4.20065
      vertex 27.75 35.3559 5.79935
    endloop
  endfacet
  facet normal 1 0 0
    outer loop
      vertex 27.75 35.1819 5.85588
      vertex 27.75 35.1819 4.14412
      vertex 27.75 35.3559 4.20065
    endloop
  endfacet
  facet normal 1 0 0
    outer loop
      vertex 27.75 35 5.875
      vertex 27.75 35.1819 4.14412
      vertex 27.75 35.1819 5.85588
    endloop
  endfacet
  facet normal 1 0 0
    outer loop
      vertex 27.75 35 5.875
      vertex 27.75 35 4.125
      vertex 27.75 35.1819 4.14412
    endloop
  endfacet
  facet normal 1 -0 0
    outer loop
      vertex 27.75 33.8 5.875
      vertex 27.75 35 4.125
      vertex 27.75 35 5.875
    endloop
  endfacet
  facet normal 1 0 0
    outer loop
      vertex 27.75 33.8 0
      vertex 27.75 35 4.125
      vertex 27.75 33.8 5.875
    endloop
  endfacet
  facet normal 1 0 0
    outer loop
      vertex 27.75 35 4.125
      vertex 27.75 33.8 0
      vertex 27.75 35 0
    endloop
  endfacet
  facet normal 0 -1 0
    outer loop
      vertex 22.25 33.8 0
      vertex 27.75 33.8 5.875
      vertex 22.25 33.8 5.875
    endloop
  endfacet
  facet normal 0 -1 -0
    outer loop
      vertex 27.75 33.8 5.875
      vertex 22.25 33.8 0
      vertex 27.75 33.8 0
    endloop
  endfacet
  facet normal 0 1 -0
    outer loop
      vertex 27.75 35 0
      vertex 22.25 35 4.125
      vertex 27.75 35 4.125
    endloop
  endfacet
  facet normal 0 1 0
    outer loop
      vertex 22.25 35 4.125
      vertex 27.75 35 0
      vertex 22.25 35 0
    endloop
  endfacet
  facet normal 0 0.104525 -0.994522
    outer loop
      vertex 22.25 35 4.125
      vertex 27.75 35.1819 4.14412
      vertex 27.75 35 4.125
    endloop
  endfacet
  facet normal 0 0.104525 -0.994522
    outer loop
      vertex 27.75 35.1819 4.14412
      vertex 22.25 35 4.125
      vertex 22.25 35.1819 4.14412
    endloop
  endfacet
  facet normal 0 0.309016 -0.951057
    outer loop
      vertex 22.25 35.1819 4.14412
      vertex 27.75 35.3559 4.20065
      vertex 27.75 35.1819 4.14412
    endloop
  endfacet
  facet normal 0 0.309016 -0.951057
    outer loop
      vertex 27.75 35.3559 4.20065
      vertex 22.25 35.1819 4.14412
      vertex 22.25 35.3559 4.20065
    endloop
  endfacet
  facet normal 0 0.809025 0.587774
    outer loop
      vertex 27.75 35.7578 5.4375
      vertex 22.25 35.6503 5.58549
      vertex 27.75 35.6503 5.58549
    endloop
  endfacet
  facet normal 0 0.809025 0.587774
    outer loop
      vertex 22.25 35.6503 5.58549
      vertex 27.75 35.7578 5.4375
      vertex 22.25 35.7578 5.4375
    endloop
  endfacet
  facet normal -0 0.309016 0.951057
    outer loop
      vertex 22.25 35.3559 5.79935
      vertex 27.75 35.1819 5.85588
      vertex 27.75 35.3559 5.79935
    endloop
  endfacet
  facet normal 0 0.309016 0.951057
    outer loop
      vertex 27.75 35.1819 5.85588
      vertex 22.25 35.3559 5.79935
      vertex 22.25 35.1819 5.85588
    endloop
  endfacet
  facet normal -0 0.10453 0.994522
    outer loop
      vertex 22.25 35.1819 5.85588
      vertex 27.75 35 5.875
      vertex 27.75 35.1819 5.85588
    endloop
  endfacet
  facet normal 0 0.10453 0.994522
    outer loop
      vertex 27.75 35 5.875
      vertex 22.25 35.1819 5.85588
      vertex 22.25 35 5.875
    endloop
  endfacet
  facet normal -0 0.669127 0.743148
    outer loop
      vertex 22.25 35.6503 5.58549
      vertex 27.75 35.5143 5.70789
      vertex 27.75 35.6503 5.58549
    endloop
  endfacet
  facet normal 0 0.669127 0.743148
    outer loop
      vertex 27.75 35.5143 5.70789
      vertex 22.25 35.6503 5.58549
      vertex 22.25 35.5143 5.70789
    endloop
  endfacet
  facet normal 0 0.978151 -0.207893
    outer loop
      vertex 27.75 35.8322 4.72961
      vertex 22.25 35.8702 4.90854
      vertex 27.75 35.8702 4.90854
    endloop
  endfacet
  facet normal 0 0.978151 -0.207893
    outer loop
      vertex 22.25 35.8702 4.90854
      vertex 27.75 35.8322 4.72961
      vertex 22.25 35.8322 4.72961
    endloop
  endfacet
  facet normal 0 0.913538 -0.406754
    outer loop
      vertex 27.75 35.7578 4.5625
      vertex 22.25 35.8322 4.72961
      vertex 27.75 35.8322 4.72961
    endloop
  endfacet
  facet normal 0 0.913538 -0.406754
    outer loop
      vertex 22.25 35.8322 4.72961
      vertex 27.75 35.7578 4.5625
      vertex 22.25 35.7578 4.5625
    endloop
  endfacet
  facet normal 0 0.669127 -0.743148
    outer loop
      vertex 22.25 35.5143 4.29211
      vertex 27.75 35.6503 4.41451
      vertex 27.75 35.5143 4.29211
    endloop
  endfacet
  facet normal 0 0.669127 -0.743148
    outer loop
      vertex 27.75 35.6503 4.41451
      vertex 22.25 35.5143 4.29211
      vertex 22.25 35.6503 4.41451
    endloop
  endfacet
  facet normal 0 0.809027 -0.587771
    outer loop
      vertex 27.75 35.6503 4.41451
      vertex 22.25 35.7578 4.5625
      vertex 27.75 35.7578 4.5625
    endloop
  endfacet
  facet normal 0 0.809027 -0.587771
    outer loop
      vertex 22.25 35.7578 4.5625
      vertex 27.75 35.6503 4.41451
      vertex 22.25 35.6503 4.41451
    endloop
  endfacet
  facet normal 0 0.500001 -0.866025
    outer loop
      vertex 22.25 35.3559 4.20065
      vertex 27.75 35.5143 4.29211
      vertex 27.75 35.3559 4.20065
    endloop
  endfacet
  facet normal 0 0.500001 -0.866025
    outer loop
      vertex 27.75 35.5143 4.29211
      vertex 22.25 35.3559 4.20065
      vertex 22.25 35.5143 4.29211
    endloop
  endfacet
  facet normal 0 0.913539 0.406752
    outer loop
      vertex 27.75 35.8322 5.27039
      vertex 22.25 35.7578 5.4375
      vertex 27.75 35.7578 5.4375
    endloop
  endfacet
  facet normal 0 0.913539 0.406752
    outer loop
      vertex 22.25 35.7578 5.4375
      vertex 27.75 35.8322 5.27039
      vertex 22.25 35.8322 5.27039
    endloop
  endfacet
  facet normal 0 1 -0
    outer loop
      vertex 27.75 35.8702 4.90854
      vertex 22.25 35.8702 5.09146
      vertex 27.75 35.8702 5.09146
    endloop
  endfacet
  facet normal 0 1 0
    outer loop
      vertex 22.25 35.8702 5.09146
      vertex 27.75 35.8702 4.90854
      vertex 22.25 35.8702 4.90854
    endloop
  endfacet
  facet normal 0 0.978151 0.207893
    outer loop
      vertex 27.75 35.8702 5.09146
      vertex 22.25 35.8322 5.27039
      vertex 27.75 35.8322 5.27039
    endloop
  endfacet
  facet normal 0 0.978151 0.207893
    outer loop
      vertex 22.25 35.8322 5.27039
      vertex 27.75 35.8702 5.09146
      vertex 22.25 35.8702 5.09146
    endloop
  endfacet
  facet normal -0 0.500001 0.866025
    outer loop
      vertex 22.25 35.5143 5.70789
      vertex 27.75 35.3559 5.79935
      vertex 27.75 35.5143 5.70789
    endloop
  endfacet
  facet normal 0 0.500001 0.866025
    outer loop
      vertex 27.75 35.3559 5.79935
      vertex 22.25 35.5143 5.70789
      vertex 22.25 35.3559 5.79935
    endloop
  endfacet
  facet normal 1 0 0
    outer loop
      vertex 15 12.5 7.5
      vertex 15 4.25 7.5
      vertex 15 12.5 5.5
    endloop
  endfacet
  facet normal 1 0 0
    outer loop
      vertex 15 22.5 5.5
      vertex 15 30.75 7.5
      vertex 15 22.5 7.5
    endloop
  endfacet
  facet normal 1 0 0
    outer loop
      vertex 15 30.75 7.5
      vertex 15 22.5 5.5
      vertex 15 30.75 0
    endloop
  endfacet
  facet normal 1 -0 0
    outer loop
      vertex 15 12.5 5.5
      vertex 15 30.75 0
      vertex 15 22.5 5.5
    endloop
  endfacet
  facet normal 1 0 0
    outer loop
      vertex 15 4.25 0
      vertex 15 12.5 5.5
      vertex 15 4.25 7.5
    endloop
  endfacet
  facet normal 1 0 0
    outer loop
      vertex 15 12.5 5.5
      vertex 15 4.25 0
      vertex 15 30.75 0
    endloop
  endfacet
  facet normal 0 0 1
    outer loop
      vertex 50 31.95 7.5
      vertex 15 30.75 7.5
      vertex 50 30.75 7.5
    endloop
  endfacet
  facet normal 0 0 1
    outer loop
      vertex 13 31.95 7.5
      vertex 15 22.5 7.5
      vertex 15 30.75 7.5
    endloop
  endfacet
  facet normal 0 0 1
    outer loop
      vertex 15 22.5 7.5
      vertex 13 31.95 7.5
      vertex 15 12.5 7.5
    endloop
  endfacet
  facet normal 0 0 1
    outer loop
      vertex 13 3.05 7.5
      vertex 15 12.5 7.5
      vertex 13 31.95 7.5
    endloop
  endfacet
  facet normal -0 0 1
    outer loop
      vertex 13 31.95 7.5
      vertex 15 30.75 7.5
      vertex 50 31.95 7.5
    endloop
  endfacet
  facet normal -0 0 1
    outer loop
      vertex 15 22.5 7.5
      vertex 28 12.5 7.5
      vertex 28 22.5 7.5
    endloop
  endfacet
  facet normal 0 0 1
    outer loop
      vertex 28 12.5 7.5
      vertex 15 22.5 7.5
      vertex 15 12.5 7.5
    endloop
  endfacet
  facet normal -0 0 1
    outer loop
      vertex 15 4.25 7.5
      vertex 50 3.05 7.5
      vertex 50 4.25 7.5
    endloop
  endfacet
  facet normal 0 0 1
    outer loop
      vertex 15 4.25 7.5
      vertex 13 3.05 7.5
      vertex 50 3.05 7.5
    endloop
  endfacet
  facet normal 0 0 1
    outer loop
      vertex 15 12.5 7.5
      vertex 13 3.05 7.5
      vertex 15 4.25 7.5
    endloop
  endfacet
  facet normal 1 -0 0
    outer loop
      vertex 50 3.05 7.5
      vertex 50 4.25 0
      vertex 50 4.25 7.5
    endloop
  endfacet
  facet normal 1 0 0
    outer loop
      vertex 50 4.25 0
      vertex 50 3.05 7.5
      vertex 50 3.05 0
    endloop
  endfacet
  facet normal 0 1 -0
    outer loop
      vertex 50 4.25 0
      vertex 15 4.25 7.5
      vertex 50 4.25 7.5
    endloop
  endfacet
  facet normal 0 1 0
    outer loop
      vertex 15 4.25 7.5
      vertex 50 4.25 0
      vertex 15 4.25 0
    endloop
  endfacet
  facet normal 0 -1 0
    outer loop
      vertex 13 3.05 0
      vertex 50 3.05 7.5
      vertex 13 3.05 7.5
    endloop
  endfacet
  facet normal 0 -1 -0
    outer loop
      vertex 50 3.05 7.5
      vertex 13 3.05 0
      vertex 50 3.05 0
    endloop
  endfacet
  facet normal 1 -0 0
    outer loop
      vertex 50 30.75 7.5
      vertex 50 31.95 0
      vertex 50 31.95 7.5
    endloop
  endfacet
  facet normal 1 0 0
    outer loop
      vertex 50 31.95 0
      vertex 50 30.75 7.5
      vertex 50 30.75 0
    endloop
  endfacet
  facet normal 0 1 -0
    outer loop
      vertex 50 31.95 0
      vertex 13 31.95 7.5
      vertex 50 31.95 7.5
    endloop
  endfacet
  facet normal 0 1 0
    outer loop
      vertex 13 31.95 7.5
      vertex 50 31.95 0
      vertex 13 31.95 0
    endloop
  endfacet
  facet normal 0 -1 0
    outer loop
      vertex 15 30.75 0
      vertex 50 30.75 7.5
      vertex 15 30.75 7.5
    endloop
  endfacet
  facet normal 0 -1 -0
    outer loop
      vertex 50 30.75 7.5
      vertex 15 30.75 0
      vertex 50 30.75 0
    endloop
  endfacet
  facet normal -1 0 0
    outer loop
      vertex 13 3.05 0
      vertex 13 31.95 7.5
      vertex 13 31.95 0
    endloop
  endfacet
  facet normal -1 -0 0
    outer loop
      vertex 13 31.95 7.5
      vertex 13 3.05 0
      vertex 13 3.05 7.5
    endloop
  endfacet
  facet normal 1 -0 0
    outer loop
      vertex 28 12.5 7.5
      vertex 28 22.5 5.5
      vertex 28 22.5 7.5
    endloop
  endfacet
  facet normal 1 0 0
    outer loop
      vertex 28 22.5 5.5
      vertex 28 12.5 7.5
      vertex 28 12.5 5.5
    endloop
  endfacet
  facet normal 0 0 -1
    outer loop
      vertex 15 12.5 5.5
      vertex 26.4 22.5 5.5
      vertex 26.4 12.5 5.5
    endloop
  endfacet
  facet normal -0 0 -1
    outer loop
      vertex 26.4 22.5 5.5
      vertex 15 12.5 5.5
      vertex 15 22.5 5.5
    endloop
  endfacet
  facet normal 0 0 -1
    outer loop
      vertex 27.2 12.5 5.5
      vertex 28 22.5 5.5
      vertex 28 12.5 5.5
    endloop
  endfacet
  facet normal -0 0 -1
    outer loop
      vertex 28 22.5 5.5
      vertex 27.2 12.5 5.5
      vertex 27.2 22.5 5.5
    endloop
  endfacet
  facet normal 0 -1 0
    outer loop
      vertex 26.4 12.5 0
      vertex 27.2 12.5 5.5
      vertex 26.4 12.5 5.5
    endloop
  endfacet
  facet normal 0 -1 -0
    outer loop
      vertex 27.2 12.5 5.5
      vertex 26.4 12.5 0
      vertex 27.2 12.5 0
    endloop
  endfacet
  facet normal 0 -1 0
    outer loop
      vertex 26.4 12.5 5.5
      vertex 15 12.5 7.5
      vertex 15 12.5 5.5
    endloop
  endfacet
  facet normal 0 -1 0
    outer loop
      vertex 15 12.5 7.5
      vertex 26.4 12.5 5.5
      vertex 28 12.5 7.5
    endloop
  endfacet
  facet normal 0 -1 0
    outer loop
      vertex 27.2 12.5 5.5
      vertex 28 12.5 7.5
      vertex 26.4 12.5 5.5
    endloop
  endfacet
  facet normal 0 -1 -0
    outer loop
      vertex 28 12.5 7.5
      vertex 27.2 12.5 5.5
      vertex 28 12.5 5.5
    endloop
  endfacet
  facet normal 0 1 -0
    outer loop
      vertex 27.2 22.5 0
      vertex 26.4 22.5 5.5
      vertex 27.2 22.5 5.5
    endloop
  endfacet
  facet normal 0 1 0
    outer loop
      vertex 26.4 22.5 5.5
      vertex 27.2 22.5 0
      vertex 26.4 22.5 0
    endloop
  endfacet
  facet normal 0 1 0
    outer loop
      vertex 27.2 22.5 5.5
      vertex 28 22.5 7.5
      vertex 28 22.5 5.5
    endloop
  endfacet
  facet normal 0 1 0
    outer loop
      vertex 26.4 22.5 5.5
      vertex 28 22.5 7.5
      vertex 27.2 22.5 5.5
    endloop
  endfacet
  facet normal 0 1 0
    outer loop
      vertex 28 22.5 7.5
      vertex 26.4 22.5 5.5
      vertex 15 22.5 7.5
    endloop
  endfacet
  facet normal 0 1 0
    outer loop
      vertex 15 22.5 7.5
      vertex 26.4 22.5 5.5
      vertex 15 22.5 5.5
    endloop
  endfacet
  facet normal -1 0 0
    outer loop
      vertex 26.4 12.5 0
      vertex 26.4 22.5 5.5
      vertex 26.4 22.5 0
    endloop
  endfacet
  facet normal -1 -0 0
    outer loop
      vertex 26.4 22.5 5.5
      vertex 26.4 12.5 0
      vertex 26.4 12.5 5.5
    endloop
  endfacet
  facet normal 1 -0 0
    outer loop
      vertex 27.2 12.5 5.5
      vertex 27.2 22.5 0
      vertex 27.2 22.5 5.5
    endloop
  endfacet
  facet normal 1 0 0
    outer loop
      vertex 27.2 22.5 0
      vertex 27.2 12.5 5.5
      vertex 27.2 12.5 0
    endloop
  endfacet
  facet normal 0.595504 0.803353 -0
    outer loop
      vertex 50.5065 35.6742 -1.2
      vertex 50.152 35.9369 0
      vertex 50.5065 35.6742 0
    endloop
  endfacet
  facet normal 0.595504 0.803353 0
    outer loop
      vertex 50.152 35.9369 0
      vertex 50.5065 35.6742 -1.2
      vertex 50.152 35.9369 -1.2
    endloop
  endfacet
  facet normal 0.413572 0.910471 -0
    outer loop
      vertex 50.152 35.9369 -1.2
      vertex 49.7517 36.1188 0
      vertex 50.152 35.9369 0
    endloop
  endfacet
  facet normal 0.413572 0.910471 0
    outer loop
      vertex 49.7517 36.1188 0
      vertex 50.152 35.9369 -1.2
      vertex 49.7517 36.1188 -1.2
    endloop
  endfacet
  facet normal 0.952854 0.303429 0
    outer loop
      vertex 51.1542 34.5296 0
      vertex 51.0188 34.9548 -1.2
      vertex 51.0188 34.9548 0
    endloop
  endfacet
  facet normal 0.952854 0.303429 0
    outer loop
      vertex 51.0188 34.9548 -1.2
      vertex 51.1542 34.5296 0
      vertex 51.1542 34.5296 -1.2
    endloop
  endfacet
  facet normal 0.994732 0.10251 0
    outer loop
      vertex 51.2 34.085 0
      vertex 51.1542 34.5296 -1.2
      vertex 51.1542 34.5296 0
    endloop
  endfacet
  facet normal 0.994732 0.10251 0
    outer loop
      vertex 51.1542 34.5296 -1.2
      vertex 51.2 34.085 0
      vertex 51.2 34.085 -1.2
    endloop
  endfacet
  facet normal 0.749778 0.66169 0
    outer loop
      vertex 50.7997 35.3419 0
      vertex 50.5065 35.6742 -1.2
      vertex 50.5065 35.6742 0
    endloop
  endfacet
  facet normal 0.749778 0.66169 0
    outer loop
      vertex 50.5065 35.6742 -1.2
      vertex 50.7997 35.3419 0
      vertex 50.7997 35.3419 -1.2
    endloop
  endfacet
  facet normal 0.595502 -0.803354 0
    outer loop
      vertex 50.152 -0.913486 -1.2
      vertex 50.5065 -0.650711 0
      vertex 50.152 -0.913486 0
    endloop
  endfacet
  facet normal 0.595502 -0.803354 0
    outer loop
      vertex 50.5065 -0.650711 0
      vertex 50.152 -0.913486 -1.2
      vertex 50.5065 -0.650711 -1.2
    endloop
  endfacet
  facet normal -0.413586 0.910465 0
    outer loop
      vertex 0.248307 36.1188 -1.2
      vertex -0.151983 35.9369 0
      vertex 0.248307 36.1188 0
    endloop
  endfacet
  facet normal -0.413586 0.910465 0
    outer loop
      vertex -0.151983 35.9369 0
      vertex 0.248307 36.1188 -1.2
      vertex -0.151983 35.9369 -1.2
    endloop
  endfacet
  facet normal 0.870314 0.492497 0
    outer loop
      vertex 51.0188 34.9548 0
      vertex 50.7997 35.3419 -1.2
      vertex 50.7997 35.3419 0
    endloop
  endfacet
  facet normal 0.870314 0.492497 0
    outer loop
      vertex 50.7997 35.3419 -1.2
      vertex 51.0188 34.9548 0
      vertex 51.0188 34.9548 -1.2
    endloop
  endfacet
  facet normal 1 -0 0
    outer loop
      vertex 51.2 22.5 0
      vertex 51.2 34.085 -1.2
      vertex 51.2 34.085 0
    endloop
  endfacet
  facet normal 1 0 0
    outer loop
      vertex 51.2 34.085 -1.2
      vertex 51.2 22.5 0
      vertex 51.2 22.5 -1.2
    endloop
  endfacet
  facet normal 1 -0 0
    outer loop
      vertex 51.2 0.938483 0
      vertex 51.2 12.5 -1.2
      vertex 51.2 12.5 0
    endloop
  endfacet
  facet normal 1 0 0
    outer loop
      vertex 51.2 12.5 -1.2
      vertex 51.2 0.938483 0
      vertex 51.2 0.938483 -1.2
    endloop
  endfacet
  facet normal 0 1 -0
    outer loop
      vertex 49.3231 36.2117 -1.2
      vertex 0.67692 36.2117 0
      vertex 49.3231 36.2117 0
    endloop
  endfacet
  facet normal 0 1 0
    outer loop
      vertex 0.67692 36.2117 0
      vertex 49.3231 36.2117 -1.2
      vertex 0.67692 36.2117 -1.2
    endloop
  endfacet
  facet normal 0.211932 0.977284 -0
    outer loop
      vertex 49.7517 36.1188 -1.2
      vertex 49.3231 36.2117 0
      vertex 49.7517 36.1188 0
    endloop
  endfacet
  facet normal 0.211932 0.977284 0
    outer loop
      vertex 49.3231 36.2117 0
      vertex 49.7517 36.1188 -1.2
      vertex 49.3231 36.2117 -1.2
    endloop
  endfacet
  facet normal -0.211934 0.977284 0
    outer loop
      vertex 0.67692 36.2117 -1.2
      vertex 0.248307 36.1188 0
      vertex 0.67692 36.2117 0
    endloop
  endfacet
  facet normal -0.211934 0.977284 0
    outer loop
      vertex 0.248307 36.1188 0
      vertex 0.67692 36.2117 -1.2
      vertex 0.248307 36.1188 -1.2
    endloop
  endfacet
  facet normal -1 0 0
    outer loop
      vertex -1.2 0.938483 -1.2
      vertex -1.2 34.085 0
      vertex -1.2 34.085 -1.2
    endloop
  endfacet
  facet normal -1 -0 0
    outer loop
      vertex -1.2 34.085 0
      vertex -1.2 0.938483 -1.2
      vertex -1.2 0.938483 0
    endloop
  endfacet
  facet normal -0.994733 0.102503 0
    outer loop
      vertex -1.2 34.085 -1.2
      vertex -1.15418 34.5296 0
      vertex -1.15418 34.5296 -1.2
    endloop
  endfacet
  facet normal -0.994733 0.102503 0
    outer loop
      vertex -1.15418 34.5296 0
      vertex -1.2 34.085 -1.2
      vertex -1.2 34.085 0
    endloop
  endfacet
  facet normal -0.749776 0.661691 0
    outer loop
      vertex -0.799691 35.3419 -1.2
      vertex -0.506493 35.6742 0
      vertex -0.506493 35.6742 -1.2
    endloop
  endfacet
  facet normal -0.749776 0.661691 0
    outer loop
      vertex -0.506493 35.6742 0
      vertex -0.799691 35.3419 -1.2
      vertex -0.799691 35.3419 0
    endloop
  endfacet
  facet normal 0 -1 0
    outer loop
      vertex 0.67692 -1.18827 -1.2
      vertex 49.3231 -1.18827 0
      vertex 0.67692 -1.18827 0
    endloop
  endfacet
  facet normal 0 -1 -0
    outer loop
      vertex 49.3231 -1.18827 0
      vertex 0.67692 -1.18827 -1.2
      vertex 49.3231 -1.18827 -1.2
    endloop
  endfacet
  facet normal 0.21193 -0.977285 0
    outer loop
      vertex 49.3231 -1.18827 -1.2
      vertex 49.7517 -1.09532 0
      vertex 49.3231 -1.18827 0
    endloop
  endfacet
  facet normal 0.21193 -0.977285 0
    outer loop
      vertex 49.7517 -1.09532 0
      vertex 49.3231 -1.18827 -1.2
      vertex 49.7517 -1.09532 -1.2
    endloop
  endfacet
  facet normal 0.870315 -0.492495 0
    outer loop
      vertex 50.7997 -0.318482 0
      vertex 51.0188 0.068696 -1.2
      vertex 51.0188 0.068696 0
    endloop
  endfacet
  facet normal 0.870315 -0.492495 0
    outer loop
      vertex 51.0188 0.068696 -1.2
      vertex 50.7997 -0.318482 0
      vertex 50.7997 -0.318482 -1.2
    endloop
  endfacet
  facet normal 0.952854 -0.30343 0
    outer loop
      vertex 51.0188 0.068696 0
      vertex 51.1542 0.493874 -1.2
      vertex 51.1542 0.493874 0
    endloop
  endfacet
  facet normal 0.952854 -0.30343 0
    outer loop
      vertex 51.1542 0.493874 -1.2
      vertex 51.0188 0.068696 0
      vertex 51.0188 0.068696 -1.2
    endloop
  endfacet
  facet normal -0.994733 -0.102504 0
    outer loop
      vertex -1.15418 0.493874 -1.2
      vertex -1.2 0.938483 0
      vertex -1.2 0.938483 -1.2
    endloop
  endfacet
  facet normal -0.994733 -0.102504 0
    outer loop
      vertex -1.2 0.938483 0
      vertex -1.15418 0.493874 -1.2
      vertex -1.15418 0.493874 0
    endloop
  endfacet
  facet normal -0.870315 0.492496 0
    outer loop
      vertex -1.01879 34.9548 -1.2
      vertex -0.799691 35.3419 0
      vertex -0.799691 35.3419 -1.2
    endloop
  endfacet
  facet normal -0.870315 0.492496 0
    outer loop
      vertex -0.799691 35.3419 0
      vertex -1.01879 34.9548 -1.2
      vertex -1.01879 34.9548 0
    endloop
  endfacet
  facet normal -0.595485 0.803366 0
    outer loop
      vertex -0.151983 35.9369 -1.2
      vertex -0.506493 35.6742 0
      vertex -0.151983 35.9369 0
    endloop
  endfacet
  facet normal -0.595485 0.803366 0
    outer loop
      vertex -0.506493 35.6742 0
      vertex -0.151983 35.9369 -1.2
      vertex -0.506493 35.6742 -1.2
    endloop
  endfacet
  facet normal 0.413572 -0.910471 0
    outer loop
      vertex 49.7517 -1.09532 -1.2
      vertex 50.152 -0.913486 0
      vertex 49.7517 -1.09532 0
    endloop
  endfacet
  facet normal 0.413572 -0.910471 0
    outer loop
      vertex 50.152 -0.913486 0
      vertex 49.7517 -1.09532 -1.2
      vertex 50.152 -0.913486 -1.2
    endloop
  endfacet
  facet normal 0.749777 -0.661691 0
    outer loop
      vertex 50.5065 -0.650711 0
      vertex 50.7997 -0.318482 -1.2
      vertex 50.7997 -0.318482 0
    endloop
  endfacet
  facet normal 0.749777 -0.661691 0
    outer loop
      vertex 50.7997 -0.318482 -1.2
      vertex 50.5065 -0.650711 0
      vertex 50.5065 -0.650711 -1.2
    endloop
  endfacet
  facet normal 0.994732 -0.10251 0
    outer loop
      vertex 51.1542 0.493874 0
      vertex 51.2 0.938483 -1.2
      vertex 51.2 0.938483 0
    endloop
  endfacet
  facet normal 0.994732 -0.10251 0
    outer loop
      vertex 51.2 0.938483 -1.2
      vertex 51.1542 0.493874 0
      vertex 51.1542 0.493874 -1.2
    endloop
  endfacet
  facet normal 0 0 -1
    outer loop
      vertex 49.3231 -1.18827 -1.2
      vertex 51.2 0.938483 -1.2
      vertex 51.1542 0.493874 -1.2
    endloop
  endfacet
  facet normal 0 0 -1
    outer loop
      vertex 49.3231 -1.18827 -1.2
      vertex 51.1542 0.493874 -1.2
      vertex 51.0188 0.068696 -1.2
    endloop
  endfacet
  facet normal 0 0 -1
    outer loop
      vertex 49.3231 -1.18827 -1.2
      vertex 51.0188 0.068696 -1.2
      vertex 50.7997 -0.318482 -1.2
    endloop
  endfacet
  facet normal 0 0 -1
    outer loop
      vertex 49.3231 -1.18827 -1.2
      vertex 50.7997 -0.318482 -1.2
      vertex 50.5065 -0.650711 -1.2
    endloop
  endfacet
  facet normal 0 0 -1
    outer loop
      vertex 49.3231 -1.18827 -1.2
      vertex 50.5065 -0.650711 -1.2
      vertex 50.152 -0.913486 -1.2
    endloop
  endfacet
  facet normal 0 0 -1
    outer loop
      vertex 49.3231 -1.18827 -1.2
      vertex 50.152 -0.913486 -1.2
      vertex 49.7517 -1.09532 -1.2
    endloop
  endfacet
  facet normal -0 0 -1
    outer loop
      vertex 51.2 0.938483 -1.2
      vertex 49.3231 -1.18827 -1.2
      vertex 42.7 12.5 -1.2
    endloop
  endfacet
  facet normal 0 0 -1
    outer loop
      vertex 51.2 0.938483 -1.2
      vertex 42.7 12.5 -1.2
      vertex 51.2 12.5 -1.2
    endloop
  endfacet
  facet normal 0 0 -1
    outer loop
      vertex -1.2 0.938483 -1.2
      vertex 42.7 12.5 -1.2
      vertex 0.67692 -1.18827 -1.2
    endloop
  endfacet
  facet normal 0 0 -1
    outer loop
      vertex 0.67692 -1.18827 -1.2
      vertex 42.7 12.5 -1.2
      vertex 49.3231 -1.18827 -1.2
    endloop
  endfacet
  facet normal 0 0 -1
    outer loop
      vertex 42.7 22.5 -1.2
      vertex 51.2 34.085 -1.2
      vertex 51.2 22.5 -1.2
    endloop
  endfacet
  facet normal 0 -0 -1
    outer loop
      vertex 49.3231 36.2117 -1.2
      vertex 51.2 34.085 -1.2
      vertex 42.7 22.5 -1.2
    endloop
  endfacet
  facet normal 0 0 -1
    outer loop
      vertex 51.2 34.085 -1.2
      vertex 49.3231 36.2117 -1.2
      vertex 51.1542 34.5296 -1.2
    endloop
  endfacet
  facet normal 0 0 -1
    outer loop
      vertex 51.1542 34.5296 -1.2
      vertex 49.3231 36.2117 -1.2
      vertex 51.0188 34.9548 -1.2
    endloop
  endfacet
  facet normal 0 0 -1
    outer loop
      vertex 51.0188 34.9548 -1.2
      vertex 49.3231 36.2117 -1.2
      vertex 50.7997 35.3419 -1.2
    endloop
  endfacet
  facet normal 0 0 -1
    outer loop
      vertex 50.5065 35.6742 -1.2
      vertex 49.3231 36.2117 -1.2
      vertex 50.152 35.9369 -1.2
    endloop
  endfacet
  facet normal 0 0 -1
    outer loop
      vertex 50.152 35.9369 -1.2
      vertex 49.3231 36.2117 -1.2
      vertex 49.7517 36.1188 -1.2
    endloop
  endfacet
  facet normal 0 0 -1
    outer loop
      vertex 50.7997 35.3419 -1.2
      vertex 49.3231 36.2117 -1.2
      vertex 50.5065 35.6742 -1.2
    endloop
  endfacet
  facet normal -0 0 -1
    outer loop
      vertex 42.7 12.5 -1.2
      vertex -1.2 0.938483 -1.2
      vertex 42.7 22.5 -1.2
    endloop
  endfacet
  facet normal 0 0 -1
    outer loop
      vertex 42.7 22.5 -1.2
      vertex 0.67692 36.2117 -1.2
      vertex 49.3231 36.2117 -1.2
    endloop
  endfacet
  facet normal 0 0 -1
    outer loop
      vertex -1.2 0.938483 -1.2
      vertex 0.67692 -1.18827 -1.2
      vertex 0.248307 -1.09532 -1.2
    endloop
  endfacet
  facet normal 0 0 -1
    outer loop
      vertex -1.2 34.085 -1.2
      vertex 42.7 22.5 -1.2
      vertex -1.2 0.938483 -1.2
    endloop
  endfacet
  facet normal 0 0 -1
    outer loop
      vertex 0.67692 36.2117 -1.2
      vertex -1.2 34.085 -1.2
      vertex 0.248307 36.1188 -1.2
    endloop
  endfacet
  facet normal 0 0 -1
    outer loop
      vertex -1.2 0.938483 -1.2
      vertex 0.248307 -1.09532 -1.2
      vertex -0.151999 -0.913486 -1.2
    endloop
  endfacet
  facet normal 0 0 -1
    outer loop
      vertex -1.2 0.938483 -1.2
      vertex -0.151999 -0.913486 -1.2
      vertex -0.506493 -0.650711 -1.2
    endloop
  endfacet
  facet normal 0 0 -1
    outer loop
      vertex 42.7 22.5 -1.2
      vertex -1.2 34.085 -1.2
      vertex 0.67692 36.2117 -1.2
    endloop
  endfacet
  facet normal 0 0 -1
    outer loop
      vertex -1.2 0.938483 -1.2
      vertex -0.506493 -0.650711 -1.2
      vertex -0.799691 -0.318482 -1.2
    endloop
  endfacet
  facet normal 0 0 -1
    outer loop
      vertex 0.248307 36.1188 -1.2
      vertex -1.2 34.085 -1.2
      vertex -0.151983 35.9369 -1.2
    endloop
  endfacet
  facet normal 0 0 -1
    outer loop
      vertex -1.2 0.938483 -1.2
      vertex -0.799691 -0.318482 -1.2
      vertex -1.01879 0.068696 -1.2
    endloop
  endfacet
  facet normal 0 0 -1
    outer loop
      vertex -0.151983 35.9369 -1.2
      vertex -1.2 34.085 -1.2
      vertex -0.506493 35.6742 -1.2
    endloop
  endfacet
  facet normal 0 0 -1
    outer loop
      vertex -1.2 0.938483 -1.2
      vertex -1.01879 0.068696 -1.2
      vertex -1.15418 0.493874 -1.2
    endloop
  endfacet
  facet normal 0 0 -1
    outer loop
      vertex -0.506493 35.6742 -1.2
      vertex -1.2 34.085 -1.2
      vertex -0.799691 35.3419 -1.2
    endloop
  endfacet
  facet normal 0 0 -1
    outer loop
      vertex -0.799691 35.3419 -1.2
      vertex -1.2 34.085 -1.2
      vertex -1.01879 34.9548 -1.2
    endloop
  endfacet
  facet normal 0 0 -1
    outer loop
      vertex -1.01879 34.9548 -1.2
      vertex -1.2 34.085 -1.2
      vertex -1.15418 34.5296 -1.2
    endloop
  endfacet
  facet normal -0.952853 0.303433 0
    outer loop
      vertex -1.15418 34.5296 -1.2
      vertex -1.01879 34.9548 0
      vertex -1.01879 34.9548 -1.2
    endloop
  endfacet
  facet normal -0.952853 0.303433 0
    outer loop
      vertex -1.01879 34.9548 0
      vertex -1.15418 34.5296 -1.2
      vertex -1.15418 34.5296 0
    endloop
  endfacet
  facet normal -0.211932 -0.977284 0
    outer loop
      vertex 0.248307 -1.09532 -1.2
      vertex 0.67692 -1.18827 0
      vertex 0.248307 -1.09532 0
    endloop
  endfacet
  facet normal -0.211932 -0.977284 -0
    outer loop
      vertex 0.67692 -1.18827 0
      vertex 0.248307 -1.09532 -1.2
      vertex 0.67692 -1.18827 -1.2
    endloop
  endfacet
  facet normal -0.595501 -0.803355 0
    outer loop
      vertex -0.506493 -0.650711 -1.2
      vertex -0.151999 -0.913486 0
      vertex -0.506493 -0.650711 0
    endloop
  endfacet
  facet normal -0.595501 -0.803355 -0
    outer loop
      vertex -0.151999 -0.913486 0
      vertex -0.506493 -0.650711 -1.2
      vertex -0.151999 -0.913486 -1.2
    endloop
  endfacet
  facet normal -0.749776 -0.661692 0
    outer loop
      vertex -0.506493 -0.650711 -1.2
      vertex -0.799691 -0.318482 0
      vertex -0.799691 -0.318482 -1.2
    endloop
  endfacet
  facet normal -0.749776 -0.661692 0
    outer loop
      vertex -0.799691 -0.318482 0
      vertex -0.506493 -0.650711 -1.2
      vertex -0.506493 -0.650711 0
    endloop
  endfacet
  facet normal -0.870316 -0.492494 0
    outer loop
      vertex -0.799691 -0.318482 -1.2
      vertex -1.01879 0.068696 0
      vertex -1.01879 0.068696 -1.2
    endloop
  endfacet
  facet normal -0.870316 -0.492494 0
    outer loop
      vertex -1.01879 0.068696 0
      vertex -0.799691 -0.318482 -1.2
      vertex -0.799691 -0.318482 0
    endloop
  endfacet
  facet normal -0.413572 -0.910471 0
    outer loop
      vertex -0.151999 -0.913486 -1.2
      vertex 0.248307 -1.09532 0
      vertex -0.151999 -0.913486 0
    endloop
  endfacet
  facet normal -0.413572 -0.910471 -0
    outer loop
      vertex 0.248307 -1.09532 0
      vertex -0.151999 -0.913486 -1.2
      vertex 0.248307 -1.09532 -1.2
    endloop
  endfacet
  facet normal -0.952852 -0.303434 0
    outer loop
      vertex -1.01879 0.068696 -1.2
      vertex -1.15418 0.493874 0
      vertex -1.15418 0.493874 -1.2
    endloop
  endfacet
  facet normal -0.952852 -0.303434 0
    outer loop
      vertex -1.15418 0.493874 0
      vertex -1.01879 0.068696 -1.2
      vertex -1.01879 0.068696 0
    endloop
  endfacet
  facet normal 1 -0 0
    outer loop
      vertex 42.7 12.5 0
      vertex 42.7 22.5 -1.2
      vertex 42.7 22.5 0
    endloop
  endfacet
  facet normal 1 0 0
    outer loop
      vertex 42.7 22.5 -1.2
      vertex 42.7 12.5 0
      vertex 42.7 12.5 -1.2
    endloop
  endfacet
  facet normal 0 -1 0
    outer loop
      vertex 42.7 22.5 -1.2
      vertex 51.2 22.5 0
      vertex 42.7 22.5 0
    endloop
  endfacet
  facet normal 0 -1 -0
    outer loop
      vertex 51.2 22.5 0
      vertex 42.7 22.5 -1.2
      vertex 51.2 22.5 -1.2
    endloop
  endfacet
  facet normal 0 1 -0
    outer loop
      vertex 51.2 12.5 -1.2
      vertex 42.7 12.5 0
      vertex 51.2 12.5 0
    endloop
  endfacet
  facet normal 0 1 0
    outer loop
      vertex 42.7 12.5 0
      vertex 51.2 12.5 -1.2
      vertex 42.7 12.5 -1.2
    endloop
  endfacet
endsolid OpenSCAD_Model
