solid OpenSCAD_Model
  facet normal -1 0 0
    outer loop
      vertex 22.25 0 3.75
      vertex 22.25 2 0
      vertex 22.25 0 0
    endloop
  endfacet
  facet normal -1 0 0
    outer loop
      vertex 22.25 2 0
      vertex 22.25 0 3.75
      vertex 22.25 2 6.25
    endloop
  endfacet
  facet normal -1 0 0
    outer loop
      vertex 22.25 0 3.75
      vertex 22.25 0 6.25
      vertex 22.25 2 6.25
    endloop
  endfacet
  facet normal -1 0 0
    outer loop
      vertex 22.25 -0.25989 3.77732
      vertex 22.25 0 6.25
      vertex 22.25 0 3.75
    endloop
  endfacet
  facet normal -1 0 0
    outer loop
      vertex 22.25 -0.25989 3.77732
      vertex 22.25 -0.25989 6.22268
      vertex 22.25 0 6.25
    endloop
  endfacet
  facet normal -1 0 0
    outer loop
      vertex 22.25 -0.50842 3.85807
      vertex 22.25 -0.25989 6.22268
      vertex 22.25 -0.25989 3.77732
    endloop
  endfacet
  facet normal -1 0 0
    outer loop
      vertex 22.25 -0.50842 3.85807
      vertex 22.25 -0.50842 6.14193
      vertex 22.25 -0.25989 6.22268
    endloop
  endfacet
  facet normal -1 0 0
    outer loop
      vertex 22.25 -0.734731 3.98873
      vertex 22.25 -0.50842 6.14193
      vertex 22.25 -0.50842 3.85807
    endloop
  endfacet
  facet normal -1 0 0
    outer loop
      vertex 22.25 -0.734731 3.98873
      vertex 22.25 -0.734731 6.01127
      vertex 22.25 -0.50842 6.14193
    endloop
  endfacet
  facet normal -1 0 0
    outer loop
      vertex 22.25 -0.92893 4.16359
      vertex 22.25 -0.734731 6.01127
      vertex 22.25 -0.734731 3.98873
    endloop
  endfacet
  facet normal -1 0 0
    outer loop
      vertex 22.25 -0.92893 4.16359
      vertex 22.25 -0.92893 5.83641
      vertex 22.25 -0.734731 6.01127
    endloop
  endfacet
  facet normal -1 0 0
    outer loop
      vertex 22.25 -1.08253 4.375
      vertex 22.25 -0.92893 5.83641
      vertex 22.25 -0.92893 4.16359
    endloop
  endfacet
  facet normal -1 0 0
    outer loop
      vertex 22.25 -1.08253 4.375
      vertex 22.25 -1.08253 5.625
      vertex 22.25 -0.92893 5.83641
    endloop
  endfacet
  facet normal -1 0 0
    outer loop
      vertex 22.25 -1.18882 4.61373
      vertex 22.25 -1.08253 5.625
      vertex 22.25 -1.08253 4.375
    endloop
  endfacet
  facet normal -1 0 0
    outer loop
      vertex 22.25 -1.18882 4.61373
      vertex 22.25 -1.18882 5.38627
      vertex 22.25 -1.08253 5.625
    endloop
  endfacet
  facet normal -1 0 0
    outer loop
      vertex 22.25 -1.24315 4.86934
      vertex 22.25 -1.18882 5.38627
      vertex 22.25 -1.18882 4.61373
    endloop
  endfacet
  facet normal -1 0 0
    outer loop
      vertex 22.25 -1.18882 5.38627
      vertex 22.25 -1.24315 4.86934
      vertex 22.25 -1.24315 5.13066
    endloop
  endfacet
  facet normal -0 0 1
    outer loop
      vertex 22.25 2 6.25
      vertex 27.75 0 6.25
      vertex 27.75 2 6.25
    endloop
  endfacet
  facet normal 0 0 1
    outer loop
      vertex 27.75 0 6.25
      vertex 22.25 2 6.25
      vertex 22.25 0 6.25
    endloop
  endfacet
  facet normal 1 -0 0
    outer loop
      vertex 27.75 -0.25989 6.22268
      vertex 27.75 0 3.75
      vertex 27.75 0 6.25
    endloop
  endfacet
  facet normal 1 0 0
    outer loop
      vertex 27.75 -0.25989 6.22268
      vertex 27.75 -0.25989 3.77732
      vertex 27.75 0 3.75
    endloop
  endfacet
  facet normal 1 -0 0
    outer loop
      vertex 27.75 -0.50842 6.14193
      vertex 27.75 -0.25989 3.77732
      vertex 27.75 -0.25989 6.22268
    endloop
  endfacet
  facet normal 1 0 0
    outer loop
      vertex 27.75 -0.50842 6.14193
      vertex 27.75 -0.50842 3.85807
      vertex 27.75 -0.25989 3.77732
    endloop
  endfacet
  facet normal 1 -0 0
    outer loop
      vertex 27.75 -0.734731 6.01127
      vertex 27.75 -0.50842 3.85807
      vertex 27.75 -0.50842 6.14193
    endloop
  endfacet
  facet normal 1 0 0
    outer loop
      vertex 27.75 -0.734731 6.01127
      vertex 27.75 -0.734731 3.98873
      vertex 27.75 -0.50842 3.85807
    endloop
  endfacet
  facet normal 1 -0 0
    outer loop
      vertex 27.75 -0.92893 5.83641
      vertex 27.75 -0.734731 3.98873
      vertex 27.75 -0.734731 6.01127
    endloop
  endfacet
  facet normal 1 0 0
    outer loop
      vertex 27.75 -0.92893 5.83641
      vertex 27.75 -0.92893 4.16359
      vertex 27.75 -0.734731 3.98873
    endloop
  endfacet
  facet normal 1 -0 0
    outer loop
      vertex 27.75 -1.08253 5.625
      vertex 27.75 -0.92893 4.16359
      vertex 27.75 -0.92893 5.83641
    endloop
  endfacet
  facet normal 1 0 0
    outer loop
      vertex 27.75 -1.08253 5.625
      vertex 27.75 -1.08253 4.375
      vertex 27.75 -0.92893 4.16359
    endloop
  endfacet
  facet normal 1 -0 0
    outer loop
      vertex 27.75 -1.18882 5.38627
      vertex 27.75 -1.08253 4.375
      vertex 27.75 -1.08253 5.625
    endloop
  endfacet
  facet normal 1 0 0
    outer loop
      vertex 27.75 -1.18882 5.38627
      vertex 27.75 -1.18882 4.61373
      vertex 27.75 -1.08253 4.375
    endloop
  endfacet
  facet normal 1 -0 0
    outer loop
      vertex 27.75 -1.24315 5.13066
      vertex 27.75 -1.18882 4.61373
      vertex 27.75 -1.18882 5.38627
    endloop
  endfacet
  facet normal 1 0 0
    outer loop
      vertex 27.75 -1.18882 4.61373
      vertex 27.75 -1.24315 5.13066
      vertex 27.75 -1.24315 4.86934
    endloop
  endfacet
  facet normal 1 0 0
    outer loop
      vertex 27.75 0 3.75
      vertex 27.75 2 6.25
      vertex 27.75 0 6.25
    endloop
  endfacet
  facet normal 1 0 0
    outer loop
      vertex 27.75 2 6.25
      vertex 27.75 0 3.75
      vertex 27.75 2 0
    endloop
  endfacet
  facet normal 1 0 0
    outer loop
      vertex 27.75 2 0
      vertex 27.75 0 3.75
      vertex 27.75 0 0
    endloop
  endfacet
  facet normal 0 1 -0
    outer loop
      vertex 27.75 2 0
      vertex 22.25 2 6.25
      vertex 27.75 2 6.25
    endloop
  endfacet
  facet normal 0 1 0
    outer loop
      vertex 22.25 2 6.25
      vertex 27.75 2 0
      vertex 22.25 2 0
    endloop
  endfacet
  facet normal 0 0 1
    outer loop
      vertex 50.209 36.989 0
      vertex 27.75 35 0
      vertex 50 32.25 0
    endloop
  endfacet
  facet normal 0 0 1
    outer loop
      vertex 50.209 36.989 0
      vertex 22.25 35 0
      vertex 27.75 35 0
    endloop
  endfacet
  facet normal 0 0 1
    outer loop
      vertex 22.25 35 0
      vertex 13.5 32.25 0
      vertex 22.25 33 0
    endloop
  endfacet
  facet normal -0 0 1
    outer loop
      vertex -2 35 0
      vertex 13.5 32.25 0
      vertex -0.209045 36.989 0
    endloop
  endfacet
  facet normal 0 0 1
    outer loop
      vertex 22.25 35 0
      vertex -0.209045 36.989 0
      vertex 13.5 32.25 0
    endloop
  endfacet
  facet normal -0 0 1
    outer loop
      vertex -0.209045 36.989 0
      vertex 22.25 35 0
      vertex 50.209 36.989 0
    endloop
  endfacet
  facet normal 0 0 1
    outer loop
      vertex 50.209 36.989 0
      vertex 52 35 0
      vertex 51.9563 35.4158 0
    endloop
  endfacet
  facet normal 0 0 1
    outer loop
      vertex 50.209 36.989 0
      vertex 51.9563 35.4158 0
      vertex 51.8271 35.8135 0
    endloop
  endfacet
  facet normal 0 0 1
    outer loop
      vertex 50.209 36.989 0
      vertex 51.8271 35.8135 0
      vertex 51.618 36.1756 0
    endloop
  endfacet
  facet normal 0 0 1
    outer loop
      vertex 50.209 36.989 0
      vertex 51.618 36.1756 0
      vertex 51.3383 36.4863 0
    endloop
  endfacet
  facet normal 0 0 1
    outer loop
      vertex 50.209 36.989 0
      vertex 51.3383 36.4863 0
      vertex 51 36.732 0
    endloop
  endfacet
  facet normal 0 0 1
    outer loop
      vertex 50.209 36.989 0
      vertex 51 36.732 0
      vertex 50.618 36.9021 0
    endloop
  endfacet
  facet normal 0 0 1
    outer loop
      vertex 52 35 0
      vertex 50.209 36.989 0
      vertex 50 32.25 0
    endloop
  endfacet
  facet normal 0 0 1
    outer loop
      vertex 52 35 0
      vertex 50 32.25 0
      vertex 50 30.75 0
    endloop
  endfacet
  facet normal 0 0 1
    outer loop
      vertex 52 35 0
      vertex 50 30.75 0
      vertex 52 22.5 0
    endloop
  endfacet
  facet normal 0 0 1
    outer loop
      vertex 50 30.75 0
      vertex 43.5 22.5 0
      vertex 52 22.5 0
    endloop
  endfacet
  facet normal 0 0 1
    outer loop
      vertex 43.5 22.5 0
      vertex 15 30.75 0
      vertex 43.5 12.5 0
    endloop
  endfacet
  facet normal -0 0 1
    outer loop
      vertex 15 30.75 0
      vertex 43.5 22.5 0
      vertex 50 30.75 0
    endloop
  endfacet
  facet normal -0 0 1
    outer loop
      vertex 50 4.25 0
      vertex 52 0 0
      vertex 52 12.5 0
    endloop
  endfacet
  facet normal -0 0 1
    outer loop
      vertex 50 2.75 0
      vertex 52 0 0
      vertex 50 4.25 0
    endloop
  endfacet
  facet normal 0 -0 1
    outer loop
      vertex 50.209 -1.98903 0
      vertex 52 0 0
      vertex 50 2.75 0
    endloop
  endfacet
  facet normal 0 0 1
    outer loop
      vertex 52 0 0
      vertex 50.209 -1.98903 0
      vertex 51.9563 -0.415817 0
    endloop
  endfacet
  facet normal 0 0 1
    outer loop
      vertex 51.9563 -0.415817 0
      vertex 50.209 -1.98903 0
      vertex 51.8271 -0.813461 0
    endloop
  endfacet
  facet normal 0 0 1
    outer loop
      vertex 51.8271 -0.813461 0
      vertex 50.209 -1.98903 0
      vertex 51.618 -1.17557 0
    endloop
  endfacet
  facet normal 0 0 1
    outer loop
      vertex 51.3383 -1.48628 0
      vertex 50.209 -1.98903 0
      vertex 51 -1.73204 0
    endloop
  endfacet
  facet normal 0 0 1
    outer loop
      vertex 51.618 -1.17557 0
      vertex 50.209 -1.98903 0
      vertex 51.3383 -1.48628 0
    endloop
  endfacet
  facet normal -0 0 1
    outer loop
      vertex 43.5 12.5 0
      vertex 50 4.25 0
      vertex 52 12.5 0
    endloop
  endfacet
  facet normal 0 0 1
    outer loop
      vertex 15 4.25 0
      vertex 43.5 12.5 0
      vertex 15 30.75 0
    endloop
  endfacet
  facet normal 0 0 1
    outer loop
      vertex 43.5 12.5 0
      vertex 15 4.25 0
      vertex 50 4.25 0
    endloop
  endfacet
  facet normal 0 0 1
    outer loop
      vertex 51 -1.73204 0
      vertex 50.209 -1.98903 0
      vertex 50.618 -1.9021 0
    endloop
  endfacet
  facet normal 0 0 1
    outer loop
      vertex 27.75 0 0
      vertex 50 2.75 0
      vertex 27.75 2 0
    endloop
  endfacet
  facet normal 0 0 1
    outer loop
      vertex 50 2.75 0
      vertex 27.75 0 0
      vertex 50.209 -1.98903 0
    endloop
  endfacet
  facet normal -0 0 1
    outer loop
      vertex 22.25 0 0
      vertex 50.209 -1.98903 0
      vertex 27.75 0 0
    endloop
  endfacet
  facet normal 0 0 1
    outer loop
      vertex 22.25 0 0
      vertex -0.209045 -1.98903 0
      vertex 50.209 -1.98903 0
    endloop
  endfacet
  facet normal 0 0 1
    outer loop
      vertex 13.5 2.75 0
      vertex -0.209045 -1.98903 0
      vertex 22.25 0 0
    endloop
  endfacet
  facet normal 0 0 1
    outer loop
      vertex 13.5 32.25 0
      vertex -2 35 0
      vertex 13.5 2.75 0
    endloop
  endfacet
  facet normal 0 0 1
    outer loop
      vertex -2 35 0
      vertex -0.209045 36.989 0
      vertex -0.618027 36.9021 0
    endloop
  endfacet
  facet normal 0 0 1
    outer loop
      vertex -2 0 0
      vertex 13.5 2.75 0
      vertex -2 35 0
    endloop
  endfacet
  facet normal 0 0 1
    outer loop
      vertex -2 35 0
      vertex -0.618027 36.9021 0
      vertex -0.999985 36.732 0
    endloop
  endfacet
  facet normal 0 0 1
    outer loop
      vertex 13.5 2.75 0
      vertex -2 0 0
      vertex -0.209045 -1.98903 0
    endloop
  endfacet
  facet normal 0 0 1
    outer loop
      vertex -2 35 0
      vertex -0.999985 36.732 0
      vertex -1.33826 36.4863 0
    endloop
  endfacet
  facet normal 0 0 1
    outer loop
      vertex -0.209045 -1.98903 0
      vertex -2 0 0
      vertex -0.618027 -1.9021 0
    endloop
  endfacet
  facet normal 0 0 1
    outer loop
      vertex -2 35 0
      vertex -1.33826 36.4863 0
      vertex -1.61803 36.1756 0
    endloop
  endfacet
  facet normal 0 0 1
    outer loop
      vertex -0.618027 -1.9021 0
      vertex -2 0 0
      vertex -1 -1.73204 0
    endloop
  endfacet
  facet normal 0 0 1
    outer loop
      vertex -2 35 0
      vertex -1.61803 36.1756 0
      vertex -1.82709 35.8135 0
    endloop
  endfacet
  facet normal 0 0 1
    outer loop
      vertex -1 -1.73204 0
      vertex -2 0 0
      vertex -1.33826 -1.48628 0
    endloop
  endfacet
  facet normal 0 0 1
    outer loop
      vertex -2 35 0
      vertex -1.82709 35.8135 0
      vertex -1.95628 35.4158 0
    endloop
  endfacet
  facet normal 0 0 1
    outer loop
      vertex -1.33826 -1.48628 0
      vertex -2 0 0
      vertex -1.61803 -1.17557 0
    endloop
  endfacet
  facet normal 0 0 1
    outer loop
      vertex -1.61803 -1.17557 0
      vertex -2 0 0
      vertex -1.82709 -0.813461 0
    endloop
  endfacet
  facet normal 0 0 1
    outer loop
      vertex -1.82709 -0.813461 0
      vertex -2 0 0
      vertex -1.95628 -0.415817 0
    endloop
  endfacet
  facet normal -0 0 1
    outer loop
      vertex 13.5 2.75 0
      vertex 27.75 2 0
      vertex 50 2.75 0
    endloop
  endfacet
  facet normal 0 0 1
    outer loop
      vertex 22.25 2 0
      vertex 13.5 2.75 0
      vertex 22.25 0 0
    endloop
  endfacet
  facet normal 0 0 1
    outer loop
      vertex 27.75 2 0
      vertex 13.5 2.75 0
      vertex 22.25 2 0
    endloop
  endfacet
  facet normal -0 0 1
    outer loop
      vertex 27.75 33 0
      vertex 50 32.25 0
      vertex 27.75 35 0
    endloop
  endfacet
  facet normal 0 0 1
    outer loop
      vertex 13.5 32.25 0
      vertex 27.75 33 0
      vertex 22.25 33 0
    endloop
  endfacet
  facet normal 0 0 1
    outer loop
      vertex 27.75 33 0
      vertex 13.5 32.25 0
      vertex 50 32.25 0
    endloop
  endfacet
  facet normal 0 -1 0
    outer loop
      vertex 22.25 0 0
      vertex 27.75 0 3.75
      vertex 22.25 0 3.75
    endloop
  endfacet
  facet normal 0 -1 -0
    outer loop
      vertex 27.75 0 3.75
      vertex 22.25 0 0
      vertex 27.75 0 0
    endloop
  endfacet
  facet normal 0 -1 0
    outer loop
      vertex 22.25 -1.24315 4.86934
      vertex 27.75 -1.24315 5.13066
      vertex 22.25 -1.24315 5.13066
    endloop
  endfacet
  facet normal 0 -1 -0
    outer loop
      vertex 27.75 -1.24315 5.13066
      vertex 22.25 -1.24315 4.86934
      vertex 27.75 -1.24315 4.86934
    endloop
  endfacet
  facet normal 0 -0.500001 -0.866025
    outer loop
      vertex 22.25 -0.734731 3.98873
      vertex 27.75 -0.50842 3.85807
      vertex 27.75 -0.734731 3.98873
    endloop
  endfacet
  facet normal -0 -0.500001 -0.866025
    outer loop
      vertex 27.75 -0.50842 3.85807
      vertex 22.25 -0.734731 3.98873
      vertex 22.25 -0.50842 3.85807
    endloop
  endfacet
  facet normal 0 -0.104527 -0.994522
    outer loop
      vertex 22.25 -0.25989 3.77732
      vertex 27.75 0 3.75
      vertex 27.75 -0.25989 3.77732
    endloop
  endfacet
  facet normal -0 -0.104527 -0.994522
    outer loop
      vertex 27.75 0 3.75
      vertex 22.25 -0.25989 3.77732
      vertex 22.25 0 3.75
    endloop
  endfacet
  facet normal 0 -0.809017 -0.587785
    outer loop
      vertex 22.25 -0.92893 4.16359
      vertex 27.75 -1.08253 4.375
      vertex 22.25 -1.08253 4.375
    endloop
  endfacet
  facet normal 0 -0.809017 -0.587785
    outer loop
      vertex 27.75 -1.08253 4.375
      vertex 22.25 -0.92893 4.16359
      vertex 27.75 -0.92893 4.16359
    endloop
  endfacet
  facet normal 0 -0.669131 -0.743145
    outer loop
      vertex 22.25 -0.92893 4.16359
      vertex 27.75 -0.734731 3.98873
      vertex 27.75 -0.92893 4.16359
    endloop
  endfacet
  facet normal -0 -0.669131 -0.743145
    outer loop
      vertex 27.75 -0.734731 3.98873
      vertex 22.25 -0.92893 4.16359
      vertex 22.25 -0.734731 3.98873
    endloop
  endfacet
  facet normal 0 -0.309017 -0.951057
    outer loop
      vertex 22.25 -0.50842 3.85807
      vertex 27.75 -0.25989 3.77732
      vertex 27.75 -0.50842 3.85807
    endloop
  endfacet
  facet normal -0 -0.309017 -0.951057
    outer loop
      vertex 27.75 -0.25989 3.77732
      vertex 22.25 -0.50842 3.85807
      vertex 22.25 -0.25989 3.77732
    endloop
  endfacet
  facet normal 0 -0.669131 0.743145
    outer loop
      vertex 22.25 -0.734731 6.01127
      vertex 27.75 -0.92893 5.83641
      vertex 27.75 -0.734731 6.01127
    endloop
  endfacet
  facet normal 0 -0.669131 0.743145
    outer loop
      vertex 27.75 -0.92893 5.83641
      vertex 22.25 -0.734731 6.01127
      vertex 22.25 -0.92893 5.83641
    endloop
  endfacet
  facet normal 0 -0.978148 0.207912
    outer loop
      vertex 22.25 -1.24315 5.13066
      vertex 27.75 -1.18882 5.38627
      vertex 22.25 -1.18882 5.38627
    endloop
  endfacet
  facet normal 0 -0.978148 0.207912
    outer loop
      vertex 27.75 -1.18882 5.38627
      vertex 22.25 -1.24315 5.13066
      vertex 27.75 -1.24315 5.13066
    endloop
  endfacet
  facet normal 0 -0.500001 0.866025
    outer loop
      vertex 22.25 -0.50842 6.14193
      vertex 27.75 -0.734731 6.01127
      vertex 27.75 -0.50842 6.14193
    endloop
  endfacet
  facet normal 0 -0.500001 0.866025
    outer loop
      vertex 27.75 -0.734731 6.01127
      vertex 22.25 -0.50842 6.14193
      vertex 22.25 -0.734731 6.01127
    endloop
  endfacet
  facet normal 0 -0.309017 0.951057
    outer loop
      vertex 22.25 -0.25989 6.22268
      vertex 27.75 -0.50842 6.14193
      vertex 27.75 -0.25989 6.22268
    endloop
  endfacet
  facet normal 0 -0.309017 0.951057
    outer loop
      vertex 27.75 -0.50842 6.14193
      vertex 22.25 -0.25989 6.22268
      vertex 22.25 -0.50842 6.14193
    endloop
  endfacet
  facet normal 0 -0.104531 0.994522
    outer loop
      vertex 22.25 0 6.25
      vertex 27.75 -0.25989 6.22268
      vertex 27.75 0 6.25
    endloop
  endfacet
  facet normal 0 -0.104531 0.994522
    outer loop
      vertex 27.75 -0.25989 6.22268
      vertex 22.25 0 6.25
      vertex 22.25 -0.25989 6.22268
    endloop
  endfacet
  facet normal 0 -0.913545 -0.406737
    outer loop
      vertex 22.25 -1.08253 4.375
      vertex 27.75 -1.18882 4.61373
      vertex 22.25 -1.18882 4.61373
    endloop
  endfacet
  facet normal 0 -0.913545 -0.406737
    outer loop
      vertex 27.75 -1.18882 4.61373
      vertex 22.25 -1.08253 4.375
      vertex 27.75 -1.08253 4.375
    endloop
  endfacet
  facet normal 0 -0.978148 -0.207912
    outer loop
      vertex 22.25 -1.18882 4.61373
      vertex 27.75 -1.24315 4.86934
      vertex 22.25 -1.24315 4.86934
    endloop
  endfacet
  facet normal 0 -0.978148 -0.207912
    outer loop
      vertex 27.75 -1.24315 4.86934
      vertex 22.25 -1.18882 4.61373
      vertex 27.75 -1.18882 4.61373
    endloop
  endfacet
  facet normal 0 -0.913546 0.406736
    outer loop
      vertex 22.25 -1.18882 5.38627
      vertex 27.75 -1.08253 5.625
      vertex 22.25 -1.08253 5.625
    endloop
  endfacet
  facet normal 0 -0.913546 0.406736
    outer loop
      vertex 27.75 -1.08253 5.625
      vertex 22.25 -1.18882 5.38627
      vertex 27.75 -1.18882 5.38627
    endloop
  endfacet
  facet normal 0 -0.809016 0.587787
    outer loop
      vertex 22.25 -1.08253 5.625
      vertex 27.75 -0.92893 5.83641
      vertex 22.25 -0.92893 5.83641
    endloop
  endfacet
  facet normal 0 -0.809016 0.587787
    outer loop
      vertex 27.75 -0.92893 5.83641
      vertex 22.25 -1.08253 5.625
      vertex 27.75 -1.08253 5.625
    endloop
  endfacet
  facet normal -1 0 0
    outer loop
      vertex 22.25 33 0
      vertex 22.25 35 3.75
      vertex 22.25 35 0
    endloop
  endfacet
  facet normal -1 0 0
    outer loop
      vertex 22.25 33 6.25
      vertex 22.25 35 3.75
      vertex 22.25 33 0
    endloop
  endfacet
  facet normal -1 0 0
    outer loop
      vertex 22.25 35 3.75
      vertex 22.25 33 6.25
      vertex 22.25 35 6.25
    endloop
  endfacet
  facet normal -1 0 0
    outer loop
      vertex 22.25 36.1888 4.61373
      vertex 22.25 36.2432 5.13066
      vertex 22.25 36.2432 4.86934
    endloop
  endfacet
  facet normal -1 0 0
    outer loop
      vertex 22.25 36.1888 4.61373
      vertex 22.25 36.1888 5.38627
      vertex 22.25 36.2432 5.13066
    endloop
  endfacet
  facet normal -1 0 0
    outer loop
      vertex 22.25 36.0825 4.375
      vertex 22.25 36.1888 5.38627
      vertex 22.25 36.1888 4.61373
    endloop
  endfacet
  facet normal -1 0 0
    outer loop
      vertex 22.25 36.0825 4.375
      vertex 22.25 36.0825 5.625
      vertex 22.25 36.1888 5.38627
    endloop
  endfacet
  facet normal -1 0 0
    outer loop
      vertex 22.25 35.9289 4.16359
      vertex 22.25 36.0825 5.625
      vertex 22.25 36.0825 4.375
    endloop
  endfacet
  facet normal -1 0 0
    outer loop
      vertex 22.25 35.9289 4.16359
      vertex 22.25 35.9289 5.83641
      vertex 22.25 36.0825 5.625
    endloop
  endfacet
  facet normal -1 0 0
    outer loop
      vertex 22.25 35.7347 3.98873
      vertex 22.25 35.9289 5.83641
      vertex 22.25 35.9289 4.16359
    endloop
  endfacet
  facet normal -1 0 0
    outer loop
      vertex 22.25 35.7347 3.98873
      vertex 22.25 35.7347 6.01127
      vertex 22.25 35.9289 5.83641
    endloop
  endfacet
  facet normal -1 0 0
    outer loop
      vertex 22.25 35.5084 3.85807
      vertex 22.25 35.7347 6.01127
      vertex 22.25 35.7347 3.98873
    endloop
  endfacet
  facet normal -1 0 0
    outer loop
      vertex 22.25 35.5084 3.85807
      vertex 22.25 35.5084 6.14193
      vertex 22.25 35.7347 6.01127
    endloop
  endfacet
  facet normal -1 0 0
    outer loop
      vertex 22.25 35.2599 3.77732
      vertex 22.25 35.5084 6.14193
      vertex 22.25 35.5084 3.85807
    endloop
  endfacet
  facet normal -1 0 0
    outer loop
      vertex 22.25 35.2599 3.77732
      vertex 22.25 35.2599 6.22268
      vertex 22.25 35.5084 6.14193
    endloop
  endfacet
  facet normal -1 0 0
    outer loop
      vertex 22.25 35 3.75
      vertex 22.25 35.2599 6.22268
      vertex 22.25 35.2599 3.77732
    endloop
  endfacet
  facet normal -1 -0 0
    outer loop
      vertex 22.25 35.2599 6.22268
      vertex 22.25 35 3.75
      vertex 22.25 35 6.25
    endloop
  endfacet
  facet normal -0 0 1
    outer loop
      vertex 22.25 35 6.25
      vertex 27.75 33 6.25
      vertex 27.75 35 6.25
    endloop
  endfacet
  facet normal 0 0 1
    outer loop
      vertex 27.75 33 6.25
      vertex 22.25 35 6.25
      vertex 22.25 33 6.25
    endloop
  endfacet
  facet normal 1 0 0
    outer loop
      vertex 27.75 36.1888 5.38627
      vertex 27.75 36.2432 4.86934
      vertex 27.75 36.2432 5.13066
    endloop
  endfacet
  facet normal 1 0 0
    outer loop
      vertex 27.75 36.1888 5.38627
      vertex 27.75 36.1888 4.61373
      vertex 27.75 36.2432 4.86934
    endloop
  endfacet
  facet normal 1 0 0
    outer loop
      vertex 27.75 36.0825 5.625
      vertex 27.75 36.1888 4.61373
      vertex 27.75 36.1888 5.38627
    endloop
  endfacet
  facet normal 1 0 0
    outer loop
      vertex 27.75 36.0825 5.625
      vertex 27.75 36.0825 4.375
      vertex 27.75 36.1888 4.61373
    endloop
  endfacet
  facet normal 1 0 0
    outer loop
      vertex 27.75 35.9289 5.83641
      vertex 27.75 36.0825 4.375
      vertex 27.75 36.0825 5.625
    endloop
  endfacet
  facet normal 1 0 0
    outer loop
      vertex 27.75 35.9289 5.83641
      vertex 27.75 35.9289 4.16359
      vertex 27.75 36.0825 4.375
    endloop
  endfacet
  facet normal 1 0 0
    outer loop
      vertex 27.75 35.7347 6.01127
      vertex 27.75 35.9289 4.16359
      vertex 27.75 35.9289 5.83641
    endloop
  endfacet
  facet normal 1 0 0
    outer loop
      vertex 27.75 35.7347 6.01127
      vertex 27.75 35.7347 3.98873
      vertex 27.75 35.9289 4.16359
    endloop
  endfacet
  facet normal 1 0 0
    outer loop
      vertex 27.75 35.5084 6.14193
      vertex 27.75 35.7347 3.98873
      vertex 27.75 35.7347 6.01127
    endloop
  endfacet
  facet normal 1 0 0
    outer loop
      vertex 27.75 35.5084 6.14193
      vertex 27.75 35.5084 3.85807
      vertex 27.75 35.7347 3.98873
    endloop
  endfacet
  facet normal 1 0 0
    outer loop
      vertex 27.75 35.2599 6.22268
      vertex 27.75 35.5084 3.85807
      vertex 27.75 35.5084 6.14193
    endloop
  endfacet
  facet normal 1 0 0
    outer loop
      vertex 27.75 35.2599 6.22268
      vertex 27.75 35.2599 3.77732
      vertex 27.75 35.5084 3.85807
    endloop
  endfacet
  facet normal 1 0 0
    outer loop
      vertex 27.75 35 6.25
      vertex 27.75 35.2599 3.77732
      vertex 27.75 35.2599 6.22268
    endloop
  endfacet
  facet normal 1 0 0
    outer loop
      vertex 27.75 35 6.25
      vertex 27.75 35 3.75
      vertex 27.75 35.2599 3.77732
    endloop
  endfacet
  facet normal 1 -0 0
    outer loop
      vertex 27.75 33 6.25
      vertex 27.75 35 3.75
      vertex 27.75 35 6.25
    endloop
  endfacet
  facet normal 1 0 0
    outer loop
      vertex 27.75 33 0
      vertex 27.75 35 3.75
      vertex 27.75 33 6.25
    endloop
  endfacet
  facet normal 1 0 0
    outer loop
      vertex 27.75 35 3.75
      vertex 27.75 33 0
      vertex 27.75 35 0
    endloop
  endfacet
  facet normal 0 -1 0
    outer loop
      vertex 22.25 33 0
      vertex 27.75 33 6.25
      vertex 22.25 33 6.25
    endloop
  endfacet
  facet normal 0 -1 -0
    outer loop
      vertex 27.75 33 6.25
      vertex 22.25 33 0
      vertex 27.75 33 0
    endloop
  endfacet
  facet normal 0 1 -0
    outer loop
      vertex 27.75 35 0
      vertex 22.25 35 3.75
      vertex 27.75 35 3.75
    endloop
  endfacet
  facet normal 0 1 0
    outer loop
      vertex 22.25 35 3.75
      vertex 27.75 35 0
      vertex 22.25 35 0
    endloop
  endfacet
  facet normal 0 1 -0
    outer loop
      vertex 27.75 36.2432 4.86934
      vertex 22.25 36.2432 5.13066
      vertex 27.75 36.2432 5.13066
    endloop
  endfacet
  facet normal 0 1 0
    outer loop
      vertex 22.25 36.2432 5.13066
      vertex 27.75 36.2432 4.86934
      vertex 22.25 36.2432 4.86934
    endloop
  endfacet
  facet normal 0 0.500001 -0.866025
    outer loop
      vertex 22.25 35.5084 3.85807
      vertex 27.75 35.7347 3.98873
      vertex 27.75 35.5084 3.85807
    endloop
  endfacet
  facet normal 0 0.500001 -0.866025
    outer loop
      vertex 27.75 35.7347 3.98873
      vertex 22.25 35.5084 3.85807
      vertex 22.25 35.7347 3.98873
    endloop
  endfacet
  facet normal 0 0.104528 -0.994522
    outer loop
      vertex 22.25 35 3.75
      vertex 27.75 35.2599 3.77732
      vertex 27.75 35 3.75
    endloop
  endfacet
  facet normal 0 0.104528 -0.994522
    outer loop
      vertex 27.75 35.2599 3.77732
      vertex 22.25 35 3.75
      vertex 22.25 35.2599 3.77732
    endloop
  endfacet
  facet normal 0 0.809021 -0.58778
    outer loop
      vertex 27.75 35.9289 4.16359
      vertex 22.25 36.0825 4.375
      vertex 27.75 36.0825 4.375
    endloop
  endfacet
  facet normal 0 0.809021 -0.58778
    outer loop
      vertex 22.25 36.0825 4.375
      vertex 27.75 35.9289 4.16359
      vertex 22.25 35.9289 4.16359
    endloop
  endfacet
  facet normal 0 0.669125 -0.74315
    outer loop
      vertex 22.25 35.7347 3.98873
      vertex 27.75 35.9289 4.16359
      vertex 27.75 35.7347 3.98873
    endloop
  endfacet
  facet normal 0 0.669125 -0.74315
    outer loop
      vertex 27.75 35.9289 4.16359
      vertex 22.25 35.7347 3.98873
      vertex 22.25 35.9289 4.16359
    endloop
  endfacet
  facet normal 0 0.309016 -0.951057
    outer loop
      vertex 22.25 35.2599 3.77732
      vertex 27.75 35.5084 3.85807
      vertex 27.75 35.2599 3.77732
    endloop
  endfacet
  facet normal 0 0.309016 -0.951057
    outer loop
      vertex 27.75 35.5084 3.85807
      vertex 22.25 35.2599 3.77732
      vertex 22.25 35.5084 3.85807
    endloop
  endfacet
  facet normal -0 0.669125 0.74315
    outer loop
      vertex 22.25 35.9289 5.83641
      vertex 27.75 35.7347 6.01127
      vertex 27.75 35.9289 5.83641
    endloop
  endfacet
  facet normal 0 0.669125 0.74315
    outer loop
      vertex 27.75 35.7347 6.01127
      vertex 22.25 35.9289 5.83641
      vertex 22.25 35.7347 6.01127
    endloop
  endfacet
  facet normal 0 0.978147 0.207916
    outer loop
      vertex 27.75 36.2432 5.13066
      vertex 22.25 36.1888 5.38627
      vertex 27.75 36.1888 5.38627
    endloop
  endfacet
  facet normal 0 0.978147 0.207916
    outer loop
      vertex 22.25 36.1888 5.38627
      vertex 27.75 36.2432 5.13066
      vertex 22.25 36.2432 5.13066
    endloop
  endfacet
  facet normal -0 0.500001 0.866025
    outer loop
      vertex 22.25 35.7347 6.01127
      vertex 27.75 35.5084 6.14193
      vertex 27.75 35.7347 6.01127
    endloop
  endfacet
  facet normal 0 0.500001 0.866025
    outer loop
      vertex 27.75 35.5084 6.14193
      vertex 22.25 35.7347 6.01127
      vertex 22.25 35.5084 6.14193
    endloop
  endfacet
  facet normal -0 0.309016 0.951057
    outer loop
      vertex 22.25 35.5084 6.14193
      vertex 27.75 35.2599 6.22268
      vertex 27.75 35.5084 6.14193
    endloop
  endfacet
  facet normal 0 0.309016 0.951057
    outer loop
      vertex 27.75 35.2599 6.22268
      vertex 22.25 35.5084 6.14193
      vertex 22.25 35.2599 6.22268
    endloop
  endfacet
  facet normal -0 0.104531 0.994522
    outer loop
      vertex 22.25 35.2599 6.22268
      vertex 27.75 35 6.25
      vertex 27.75 35.2599 6.22268
    endloop
  endfacet
  facet normal 0 0.104531 0.994522
    outer loop
      vertex 27.75 35 6.25
      vertex 22.25 35.2599 6.22268
      vertex 22.25 35 6.25
    endloop
  endfacet
  facet normal 0 0.913545 -0.406737
    outer loop
      vertex 27.75 36.0825 4.375
      vertex 22.25 36.1888 4.61373
      vertex 27.75 36.1888 4.61373
    endloop
  endfacet
  facet normal 0 0.913545 -0.406737
    outer loop
      vertex 22.25 36.1888 4.61373
      vertex 27.75 36.0825 4.375
      vertex 22.25 36.0825 4.375
    endloop
  endfacet
  facet normal 0 0.978147 -0.207916
    outer loop
      vertex 27.75 36.1888 4.61373
      vertex 22.25 36.2432 4.86934
      vertex 27.75 36.2432 4.86934
    endloop
  endfacet
  facet normal 0 0.978147 -0.207916
    outer loop
      vertex 22.25 36.2432 4.86934
      vertex 27.75 36.1888 4.61373
      vertex 22.25 36.1888 4.61373
    endloop
  endfacet
  facet normal 0 0.913546 0.406736
    outer loop
      vertex 27.75 36.1888 5.38627
      vertex 22.25 36.0825 5.625
      vertex 27.75 36.0825 5.625
    endloop
  endfacet
  facet normal 0 0.913546 0.406736
    outer loop
      vertex 22.25 36.0825 5.625
      vertex 27.75 36.1888 5.38627
      vertex 22.25 36.1888 5.38627
    endloop
  endfacet
  facet normal 0 0.809019 0.587782
    outer loop
      vertex 27.75 36.0825 5.625
      vertex 22.25 35.9289 5.83641
      vertex 27.75 35.9289 5.83641
    endloop
  endfacet
  facet normal 0 0.809019 0.587782
    outer loop
      vertex 22.25 35.9289 5.83641
      vertex 27.75 36.0825 5.625
      vertex 22.25 36.0825 5.625
    endloop
  endfacet
  facet normal 1 0 0
    outer loop
      vertex 15 12.5 7
      vertex 15 4.25 7
      vertex 15 12.5 5.5
    endloop
  endfacet
  facet normal 1 0 0
    outer loop
      vertex 15 22.5 5.5
      vertex 15 30.75 7
      vertex 15 22.5 7
    endloop
  endfacet
  facet normal 1 0 0
    outer loop
      vertex 15 30.75 7
      vertex 15 22.5 5.5
      vertex 15 30.75 0
    endloop
  endfacet
  facet normal 1 -0 0
    outer loop
      vertex 15 12.5 5.5
      vertex 15 30.75 0
      vertex 15 22.5 5.5
    endloop
  endfacet
  facet normal 1 0 0
    outer loop
      vertex 15 4.25 0
      vertex 15 12.5 5.5
      vertex 15 4.25 7
    endloop
  endfacet
  facet normal 1 0 0
    outer loop
      vertex 15 12.5 5.5
      vertex 15 4.25 0
      vertex 15 30.75 0
    endloop
  endfacet
  facet normal 0 0 1
    outer loop
      vertex 50 32.25 7
      vertex 15 30.75 7
      vertex 50 30.75 7
    endloop
  endfacet
  facet normal 0 0 1
    outer loop
      vertex 13.5 32.25 7
      vertex 15 22.5 7
      vertex 15 30.75 7
    endloop
  endfacet
  facet normal 0 0 1
    outer loop
      vertex 15 22.5 7
      vertex 13.5 32.25 7
      vertex 15 12.5 7
    endloop
  endfacet
  facet normal 0 0 1
    outer loop
      vertex 13.5 2.75 7
      vertex 15 12.5 7
      vertex 13.5 32.25 7
    endloop
  endfacet
  facet normal -0 0 1
    outer loop
      vertex 13.5 32.25 7
      vertex 15 30.75 7
      vertex 50 32.25 7
    endloop
  endfacet
  facet normal -0 0 1
    outer loop
      vertex 15 22.5 7
      vertex 28.5 12.5 7
      vertex 28.5 22.5 7
    endloop
  endfacet
  facet normal 0 0 1
    outer loop
      vertex 28.5 12.5 7
      vertex 15 22.5 7
      vertex 15 12.5 7
    endloop
  endfacet
  facet normal -0 0 1
    outer loop
      vertex 15 4.25 7
      vertex 50 2.75 7
      vertex 50 4.25 7
    endloop
  endfacet
  facet normal 0 0 1
    outer loop
      vertex 15 4.25 7
      vertex 13.5 2.75 7
      vertex 50 2.75 7
    endloop
  endfacet
  facet normal 0 0 1
    outer loop
      vertex 15 12.5 7
      vertex 13.5 2.75 7
      vertex 15 4.25 7
    endloop
  endfacet
  facet normal 1 -0 0
    outer loop
      vertex 50 2.75 7
      vertex 50 4.25 0
      vertex 50 4.25 7
    endloop
  endfacet
  facet normal 1 0 0
    outer loop
      vertex 50 4.25 0
      vertex 50 2.75 7
      vertex 50 2.75 0
    endloop
  endfacet
  facet normal 0 1 -0
    outer loop
      vertex 50 4.25 0
      vertex 15 4.25 7
      vertex 50 4.25 7
    endloop
  endfacet
  facet normal 0 1 0
    outer loop
      vertex 15 4.25 7
      vertex 50 4.25 0
      vertex 15 4.25 0
    endloop
  endfacet
  facet normal 0 -1 0
    outer loop
      vertex 13.5 2.75 0
      vertex 50 2.75 7
      vertex 13.5 2.75 7
    endloop
  endfacet
  facet normal 0 -1 -0
    outer loop
      vertex 50 2.75 7
      vertex 13.5 2.75 0
      vertex 50 2.75 0
    endloop
  endfacet
  facet normal 1 -0 0
    outer loop
      vertex 50 30.75 7
      vertex 50 32.25 0
      vertex 50 32.25 7
    endloop
  endfacet
  facet normal 1 0 0
    outer loop
      vertex 50 32.25 0
      vertex 50 30.75 7
      vertex 50 30.75 0
    endloop
  endfacet
  facet normal 0 1 -0
    outer loop
      vertex 50 32.25 0
      vertex 13.5 32.25 7
      vertex 50 32.25 7
    endloop
  endfacet
  facet normal 0 1 0
    outer loop
      vertex 13.5 32.25 7
      vertex 50 32.25 0
      vertex 13.5 32.25 0
    endloop
  endfacet
  facet normal 0 -1 0
    outer loop
      vertex 15 30.75 0
      vertex 50 30.75 7
      vertex 15 30.75 7
    endloop
  endfacet
  facet normal 0 -1 -0
    outer loop
      vertex 50 30.75 7
      vertex 15 30.75 0
      vertex 50 30.75 0
    endloop
  endfacet
  facet normal -1 0 0
    outer loop
      vertex 13.5 2.75 0
      vertex 13.5 32.25 7
      vertex 13.5 32.25 0
    endloop
  endfacet
  facet normal -1 -0 0
    outer loop
      vertex 13.5 32.25 7
      vertex 13.5 2.75 0
      vertex 13.5 2.75 7
    endloop
  endfacet
  facet normal 1 -0 0
    outer loop
      vertex 28.5 12.5 7
      vertex 28.5 22.5 5.5
      vertex 28.5 22.5 7
    endloop
  endfacet
  facet normal 1 0 0
    outer loop
      vertex 28.5 22.5 5.5
      vertex 28.5 12.5 7
      vertex 28.5 12.5 5.5
    endloop
  endfacet
  facet normal 0 1 -0
    outer loop
      vertex 28.5 22.5 5.5
      vertex 15 22.5 7
      vertex 28.5 22.5 7
    endloop
  endfacet
  facet normal 0 1 0
    outer loop
      vertex 15 22.5 7
      vertex 28.5 22.5 5.5
      vertex 15 22.5 5.5
    endloop
  endfacet
  facet normal 0 0 -1
    outer loop
      vertex 15 12.5 5.5
      vertex 28.5 22.5 5.5
      vertex 28.5 12.5 5.5
    endloop
  endfacet
  facet normal -0 0 -1
    outer loop
      vertex 28.5 22.5 5.5
      vertex 15 12.5 5.5
      vertex 15 22.5 5.5
    endloop
  endfacet
  facet normal 0 -1 0
    outer loop
      vertex 15 12.5 5.5
      vertex 28.5 12.5 7
      vertex 15 12.5 7
    endloop
  endfacet
  facet normal 0 -1 -0
    outer loop
      vertex 28.5 12.5 7
      vertex 15 12.5 5.5
      vertex 28.5 12.5 5.5
    endloop
  endfacet
  facet normal 0.587785 0.809017 -0
    outer loop
      vertex 51.3383 36.4863 -2
      vertex 51 36.732 0
      vertex 51.3383 36.4863 0
    endloop
  endfacet
  facet normal 0.587785 0.809017 0
    outer loop
      vertex 51 36.732 0
      vertex 51.3383 36.4863 -2
      vertex 51 36.732 -2
    endloop
  endfacet
  facet normal 0.994519 0.104558 0
    outer loop
      vertex 52 35 0
      vertex 51.9563 35.4158 -2
      vertex 51.9563 35.4158 0
    endloop
  endfacet
  facet normal 0.994519 0.104558 0
    outer loop
      vertex 51.9563 35.4158 -2
      vertex 52 35 0
      vertex 52 35 -2
    endloop
  endfacet
  facet normal 0.406724 0.913551 -0
    outer loop
      vertex 51 36.732 -2
      vertex 50.618 36.9021 0
      vertex 51 36.732 0
    endloop
  endfacet
  facet normal 0.406724 0.913551 0
    outer loop
      vertex 50.618 36.9021 0
      vertex 51 36.732 -2
      vertex 50.618 36.9021 -2
    endloop
  endfacet
  facet normal 0.951061 0.309004 0
    outer loop
      vertex 51.9563 35.4158 0
      vertex 51.8271 35.8135 -2
      vertex 51.8271 35.8135 0
    endloop
  endfacet
  facet normal 0.951061 0.309004 0
    outer loop
      vertex 51.8271 35.8135 -2
      vertex 51.9563 35.4158 0
      vertex 51.9563 35.4158 -2
    endloop
  endfacet
  facet normal 0.743144 0.669132 0
    outer loop
      vertex 51.618 36.1756 0
      vertex 51.3383 36.4863 -2
      vertex 51.3383 36.4863 0
    endloop
  endfacet
  facet normal 0.743144 0.669132 0
    outer loop
      vertex 51.3383 36.4863 -2
      vertex 51.618 36.1756 0
      vertex 51.618 36.1756 -2
    endloop
  endfacet
  facet normal -0.406738 0.913545 0
    outer loop
      vertex -0.618027 36.9021 -2
      vertex -0.999985 36.732 0
      vertex -0.618027 36.9021 0
    endloop
  endfacet
  facet normal -0.406738 0.913545 0
    outer loop
      vertex -0.999985 36.732 0
      vertex -0.618027 36.9021 -2
      vertex -0.999985 36.732 -2
    endloop
  endfacet
  facet normal 0.866027 0.499997 0
    outer loop
      vertex 51.8271 35.8135 0
      vertex 51.618 36.1756 -2
      vertex 51.618 36.1756 0
    endloop
  endfacet
  facet normal 0.866027 0.499997 0
    outer loop
      vertex 51.618 36.1756 -2
      vertex 51.8271 35.8135 0
      vertex 51.8271 35.8135 -2
    endloop
  endfacet
  facet normal -1 0 0
    outer loop
      vertex -2 0 -2
      vertex -2 35 0
      vertex -2 35 -2
    endloop
  endfacet
  facet normal -1 -0 0
    outer loop
      vertex -2 35 0
      vertex -2 0 -2
      vertex -2 0 0
    endloop
  endfacet
  facet normal 1 -0 0
    outer loop
      vertex 52 22.5 0
      vertex 52 35 -2
      vertex 52 35 0
    endloop
  endfacet
  facet normal 1 0 0
    outer loop
      vertex 52 35 -2
      vertex 52 22.5 0
      vertex 52 22.5 -2
    endloop
  endfacet
  facet normal 1 -0 0
    outer loop
      vertex 52 0 0
      vertex 52 12.5 -2
      vertex 52 12.5 0
    endloop
  endfacet
  facet normal 1 0 0
    outer loop
      vertex 52 12.5 -2
      vertex 52 0 0
      vertex 52 0 -2
    endloop
  endfacet
  facet normal 0 1 -0
    outer loop
      vertex 50.209 36.989 -2
      vertex -0.209045 36.989 0
      vertex 50.209 36.989 0
    endloop
  endfacet
  facet normal 0 1 0
    outer loop
      vertex -0.209045 36.989 0
      vertex 50.209 36.989 -2
      vertex -0.209045 36.989 -2
    endloop
  endfacet
  facet normal -0.207906 0.978149 0
    outer loop
      vertex -0.209045 36.989 -2
      vertex -0.618027 36.9021 0
      vertex -0.209045 36.989 0
    endloop
  endfacet
  facet normal -0.207906 0.978149 0
    outer loop
      vertex -0.618027 36.9021 0
      vertex -0.209045 36.989 -2
      vertex -0.618027 36.9021 -2
    endloop
  endfacet
  facet normal -0.994519 0.104558 0
    outer loop
      vertex -2 35 -2
      vertex -1.95628 35.4158 0
      vertex -1.95628 35.4158 -2
    endloop
  endfacet
  facet normal -0.994519 0.104558 0
    outer loop
      vertex -1.95628 35.4158 0
      vertex -2 35 -2
      vertex -2 35 0
    endloop
  endfacet
  facet normal -0.994519 -0.104558 0
    outer loop
      vertex -1.95628 -0.415817 -2
      vertex -2 0 0
      vertex -2 0 -2
    endloop
  endfacet
  facet normal -0.994519 -0.104558 0
    outer loop
      vertex -2 0 0
      vertex -1.95628 -0.415817 -2
      vertex -1.95628 -0.415817 0
    endloop
  endfacet
  facet normal 0 -1 0
    outer loop
      vertex -0.209045 -1.98903 -2
      vertex 50.209 -1.98903 0
      vertex -0.209045 -1.98903 0
    endloop
  endfacet
  facet normal 0 -1 -0
    outer loop
      vertex 50.209 -1.98903 0
      vertex -0.209045 -1.98903 -2
      vertex 50.209 -1.98903 -2
    endloop
  endfacet
  facet normal 0.406724 -0.913551 0
    outer loop
      vertex 50.618 -1.9021 -2
      vertex 51 -1.73204 0
      vertex 50.618 -1.9021 0
    endloop
  endfacet
  facet normal 0.406724 -0.913551 0
    outer loop
      vertex 51 -1.73204 0
      vertex 50.618 -1.9021 -2
      vertex 51 -1.73204 -2
    endloop
  endfacet
  facet normal 0.866027 -0.499997 0
    outer loop
      vertex 51.618 -1.17557 0
      vertex 51.8271 -0.813461 -2
      vertex 51.8271 -0.813461 0
    endloop
  endfacet
  facet normal 0.866027 -0.499997 0
    outer loop
      vertex 51.8271 -0.813461 -2
      vertex 51.618 -1.17557 0
      vertex 51.618 -1.17557 -2
    endloop
  endfacet
  facet normal 0.994519 -0.104558 0
    outer loop
      vertex 51.9563 -0.415817 0
      vertex 52 0 -2
      vertex 52 0 0
    endloop
  endfacet
  facet normal 0.994519 -0.104558 0
    outer loop
      vertex 52 0 -2
      vertex 51.9563 -0.415817 0
      vertex 51.9563 -0.415817 -2
    endloop
  endfacet
  facet normal 0.587785 -0.809017 0
    outer loop
      vertex 51 -1.73204 -2
      vertex 51.3383 -1.48628 0
      vertex 51 -1.73204 0
    endloop
  endfacet
  facet normal 0.587785 -0.809017 0
    outer loop
      vertex 51.3383 -1.48628 0
      vertex 51 -1.73204 -2
      vertex 51.3383 -1.48628 -2
    endloop
  endfacet
  facet normal 0.207906 0.978149 -0
    outer loop
      vertex 50.618 36.9021 -2
      vertex 50.209 36.989 0
      vertex 50.618 36.9021 0
    endloop
  endfacet
  facet normal 0.207906 0.978149 0
    outer loop
      vertex 50.209 36.989 0
      vertex 50.618 36.9021 -2
      vertex 50.209 36.989 -2
    endloop
  endfacet
  facet normal -0.587768 0.80903 0
    outer loop
      vertex -0.999985 36.732 -2
      vertex -1.33826 36.4863 0
      vertex -0.999985 36.732 0
    endloop
  endfacet
  facet normal -0.587768 0.80903 0
    outer loop
      vertex -1.33826 36.4863 0
      vertex -0.999985 36.732 -2
      vertex -1.33826 36.4863 -2
    endloop
  endfacet
  facet normal -0.951061 -0.309004 0
    outer loop
      vertex -1.82709 -0.813461 -2
      vertex -1.95628 -0.415817 0
      vertex -1.95628 -0.415817 -2
    endloop
  endfacet
  facet normal -0.951061 -0.309004 0
    outer loop
      vertex -1.95628 -0.415817 0
      vertex -1.82709 -0.813461 -2
      vertex -1.82709 -0.813461 0
    endloop
  endfacet
  facet normal 0.207906 -0.978149 0
    outer loop
      vertex 50.209 -1.98903 -2
      vertex 50.618 -1.9021 0
      vertex 50.209 -1.98903 0
    endloop
  endfacet
  facet normal 0.207906 -0.978149 0
    outer loop
      vertex 50.618 -1.9021 0
      vertex 50.209 -1.98903 -2
      vertex 50.618 -1.9021 -2
    endloop
  endfacet
  facet normal 0.951061 -0.309004 0
    outer loop
      vertex 51.8271 -0.813461 0
      vertex 51.9563 -0.415817 -2
      vertex 51.9563 -0.415817 0
    endloop
  endfacet
  facet normal 0.951061 -0.309004 0
    outer loop
      vertex 51.9563 -0.415817 -2
      vertex 51.8271 -0.813461 0
      vertex 51.8271 -0.813461 -2
    endloop
  endfacet
  facet normal 0.743144 -0.669132 0
    outer loop
      vertex 51.3383 -1.48628 0
      vertex 51.618 -1.17557 -2
      vertex 51.618 -1.17557 0
    endloop
  endfacet
  facet normal 0.743144 -0.669132 0
    outer loop
      vertex 51.618 -1.17557 -2
      vertex 51.3383 -1.48628 0
      vertex 51.3383 -1.48628 -2
    endloop
  endfacet
  facet normal -0.743144 0.669132 0
    outer loop
      vertex -1.61803 36.1756 -2
      vertex -1.33826 36.4863 0
      vertex -1.33826 36.4863 -2
    endloop
  endfacet
  facet normal -0.743144 0.669132 0
    outer loop
      vertex -1.33826 36.4863 0
      vertex -1.61803 36.1756 -2
      vertex -1.61803 36.1756 0
    endloop
  endfacet
  facet normal 0 0 -1
    outer loop
      vertex 50.209 -1.98903 -2
      vertex 52 0 -2
      vertex 51.9563 -0.415817 -2
    endloop
  endfacet
  facet normal 0 0 -1
    outer loop
      vertex 50.209 -1.98903 -2
      vertex 51.9563 -0.415817 -2
      vertex 51.8271 -0.813461 -2
    endloop
  endfacet
  facet normal 0 0 -1
    outer loop
      vertex 50.209 -1.98903 -2
      vertex 51.8271 -0.813461 -2
      vertex 51.618 -1.17557 -2
    endloop
  endfacet
  facet normal 0 0 -1
    outer loop
      vertex 50.209 -1.98903 -2
      vertex 51.618 -1.17557 -2
      vertex 51.3383 -1.48628 -2
    endloop
  endfacet
  facet normal 0 0 -1
    outer loop
      vertex 50.209 -1.98903 -2
      vertex 51.3383 -1.48628 -2
      vertex 51 -1.73204 -2
    endloop
  endfacet
  facet normal 0 0 -1
    outer loop
      vertex 50.209 -1.98903 -2
      vertex 51 -1.73204 -2
      vertex 50.618 -1.9021 -2
    endloop
  endfacet
  facet normal -0 0 -1
    outer loop
      vertex 52 0 -2
      vertex 50.209 -1.98903 -2
      vertex 43.5 12.5 -2
    endloop
  endfacet
  facet normal 0 0 -1
    outer loop
      vertex 52 0 -2
      vertex 43.5 12.5 -2
      vertex 52 12.5 -2
    endloop
  endfacet
  facet normal 0 0 -1
    outer loop
      vertex -2 0 -2
      vertex 43.5 12.5 -2
      vertex -0.209045 -1.98903 -2
    endloop
  endfacet
  facet normal 0 0 -1
    outer loop
      vertex -0.209045 -1.98903 -2
      vertex 43.5 12.5 -2
      vertex 50.209 -1.98903 -2
    endloop
  endfacet
  facet normal 0 0 -1
    outer loop
      vertex 43.5 22.5 -2
      vertex 52 35 -2
      vertex 52 22.5 -2
    endloop
  endfacet
  facet normal 0 -0 -1
    outer loop
      vertex 50.209 36.989 -2
      vertex 52 35 -2
      vertex 43.5 22.5 -2
    endloop
  endfacet
  facet normal 0 0 -1
    outer loop
      vertex 52 35 -2
      vertex 50.209 36.989 -2
      vertex 51.9563 35.4158 -2
    endloop
  endfacet
  facet normal 0 0 -1
    outer loop
      vertex 51.9563 35.4158 -2
      vertex 50.209 36.989 -2
      vertex 51.8271 35.8135 -2
    endloop
  endfacet
  facet normal 0 0 -1
    outer loop
      vertex 51.8271 35.8135 -2
      vertex 50.209 36.989 -2
      vertex 51.618 36.1756 -2
    endloop
  endfacet
  facet normal 0 0 -1
    outer loop
      vertex 51.3383 36.4863 -2
      vertex 50.209 36.989 -2
      vertex 51 36.732 -2
    endloop
  endfacet
  facet normal 0 0 -1
    outer loop
      vertex 51 36.732 -2
      vertex 50.209 36.989 -2
      vertex 50.618 36.9021 -2
    endloop
  endfacet
  facet normal 0 0 -1
    outer loop
      vertex 51.618 36.1756 -2
      vertex 50.209 36.989 -2
      vertex 51.3383 36.4863 -2
    endloop
  endfacet
  facet normal -0 0 -1
    outer loop
      vertex 43.5 12.5 -2
      vertex -2 0 -2
      vertex 43.5 22.5 -2
    endloop
  endfacet
  facet normal 0 0 -1
    outer loop
      vertex 43.5 22.5 -2
      vertex -0.209045 36.989 -2
      vertex 50.209 36.989 -2
    endloop
  endfacet
  facet normal 0 0 -1
    outer loop
      vertex -2 0 -2
      vertex -0.209045 -1.98903 -2
      vertex -0.618027 -1.9021 -2
    endloop
  endfacet
  facet normal 0 0 -1
    outer loop
      vertex -2 35 -2
      vertex 43.5 22.5 -2
      vertex -2 0 -2
    endloop
  endfacet
  facet normal 0 0 -1
    outer loop
      vertex -0.209045 36.989 -2
      vertex -2 35 -2
      vertex -0.618027 36.9021 -2
    endloop
  endfacet
  facet normal 0 0 -1
    outer loop
      vertex -2 0 -2
      vertex -0.618027 -1.9021 -2
      vertex -1 -1.73204 -2
    endloop
  endfacet
  facet normal 0 0 -1
    outer loop
      vertex -2 0 -2
      vertex -1 -1.73204 -2
      vertex -1.33826 -1.48628 -2
    endloop
  endfacet
  facet normal 0 0 -1
    outer loop
      vertex 43.5 22.5 -2
      vertex -2 35 -2
      vertex -0.209045 36.989 -2
    endloop
  endfacet
  facet normal 0 0 -1
    outer loop
      vertex -2 0 -2
      vertex -1.33826 -1.48628 -2
      vertex -1.61803 -1.17557 -2
    endloop
  endfacet
  facet normal 0 0 -1
    outer loop
      vertex -0.618027 36.9021 -2
      vertex -2 35 -2
      vertex -0.999985 36.732 -2
    endloop
  endfacet
  facet normal 0 0 -1
    outer loop
      vertex -2 0 -2
      vertex -1.61803 -1.17557 -2
      vertex -1.82709 -0.813461 -2
    endloop
  endfacet
  facet normal 0 0 -1
    outer loop
      vertex -0.999985 36.732 -2
      vertex -2 35 -2
      vertex -1.33826 36.4863 -2
    endloop
  endfacet
  facet normal 0 0 -1
    outer loop
      vertex -2 0 -2
      vertex -1.82709 -0.813461 -2
      vertex -1.95628 -0.415817 -2
    endloop
  endfacet
  facet normal 0 0 -1
    outer loop
      vertex -1.33826 36.4863 -2
      vertex -2 35 -2
      vertex -1.61803 36.1756 -2
    endloop
  endfacet
  facet normal 0 0 -1
    outer loop
      vertex -1.61803 36.1756 -2
      vertex -2 35 -2
      vertex -1.82709 35.8135 -2
    endloop
  endfacet
  facet normal 0 0 -1
    outer loop
      vertex -1.82709 35.8135 -2
      vertex -2 35 -2
      vertex -1.95628 35.4158 -2
    endloop
  endfacet
  facet normal -0.743144 -0.669132 0
    outer loop
      vertex -1.33826 -1.48628 -2
      vertex -1.61803 -1.17557 0
      vertex -1.61803 -1.17557 -2
    endloop
  endfacet
  facet normal -0.743144 -0.669132 0
    outer loop
      vertex -1.61803 -1.17557 0
      vertex -1.33826 -1.48628 -2
      vertex -1.33826 -1.48628 0
    endloop
  endfacet
  facet normal -0.406724 -0.913551 0
    outer loop
      vertex -1 -1.73204 -2
      vertex -0.618027 -1.9021 0
      vertex -1 -1.73204 0
    endloop
  endfacet
  facet normal -0.406724 -0.913551 -0
    outer loop
      vertex -0.618027 -1.9021 0
      vertex -1 -1.73204 -2
      vertex -0.618027 -1.9021 -2
    endloop
  endfacet
  facet normal -0.587785 -0.809017 0
    outer loop
      vertex -1.33826 -1.48628 -2
      vertex -1 -1.73204 0
      vertex -1.33826 -1.48628 0
    endloop
  endfacet
  facet normal -0.587785 -0.809017 -0
    outer loop
      vertex -1 -1.73204 0
      vertex -1.33826 -1.48628 -2
      vertex -1 -1.73204 -2
    endloop
  endfacet
  facet normal -0.207906 -0.978149 0
    outer loop
      vertex -0.618027 -1.9021 -2
      vertex -0.209045 -1.98903 0
      vertex -0.618027 -1.9021 0
    endloop
  endfacet
  facet normal -0.207906 -0.978149 -0
    outer loop
      vertex -0.209045 -1.98903 0
      vertex -0.618027 -1.9021 -2
      vertex -0.209045 -1.98903 -2
    endloop
  endfacet
  facet normal -0.866027 0.499997 0
    outer loop
      vertex -1.82709 35.8135 -2
      vertex -1.61803 36.1756 0
      vertex -1.61803 36.1756 -2
    endloop
  endfacet
  facet normal -0.866027 0.499997 0
    outer loop
      vertex -1.61803 36.1756 0
      vertex -1.82709 35.8135 -2
      vertex -1.82709 35.8135 0
    endloop
  endfacet
  facet normal -0.951061 0.309004 0
    outer loop
      vertex -1.95628 35.4158 -2
      vertex -1.82709 35.8135 0
      vertex -1.82709 35.8135 -2
    endloop
  endfacet
  facet normal -0.951061 0.309004 0
    outer loop
      vertex -1.82709 35.8135 0
      vertex -1.95628 35.4158 -2
      vertex -1.95628 35.4158 0
    endloop
  endfacet
  facet normal -0.866027 -0.499997 0
    outer loop
      vertex -1.61803 -1.17557 -2
      vertex -1.82709 -0.813461 0
      vertex -1.82709 -0.813461 -2
    endloop
  endfacet
  facet normal -0.866027 -0.499997 0
    outer loop
      vertex -1.82709 -0.813461 0
      vertex -1.61803 -1.17557 -2
      vertex -1.61803 -1.17557 0
    endloop
  endfacet
  facet normal 1 -0 0
    outer loop
      vertex 43.5 12.5 0
      vertex 43.5 22.5 -2
      vertex 43.5 22.5 0
    endloop
  endfacet
  facet normal 1 0 0
    outer loop
      vertex 43.5 22.5 -2
      vertex 43.5 12.5 0
      vertex 43.5 12.5 -2
    endloop
  endfacet
  facet normal 0 -1 0
    outer loop
      vertex 43.5 22.5 -2
      vertex 52 22.5 0
      vertex 43.5 22.5 0
    endloop
  endfacet
  facet normal 0 -1 -0
    outer loop
      vertex 52 22.5 0
      vertex 43.5 22.5 -2
      vertex 52 22.5 -2
    endloop
  endfacet
  facet normal 0 1 -0
    outer loop
      vertex 52 12.5 -2
      vertex 43.5 12.5 0
      vertex 52 12.5 0
    endloop
  endfacet
  facet normal 0 1 0
    outer loop
      vertex 43.5 12.5 0
      vertex 52 12.5 -2
      vertex 43.5 12.5 -2
    endloop
  endfacet
endsolid OpenSCAD_Model
