#define mist_width 32
#define mist_height 32
static unsigned char mist_bits[] = {
   0x00, 0x00, 0x00, 0x00, 0x00, 0x00, 0x00, 0x00, 0x00, 0x00, 0x00, 0x00,
   0x00, 0x00, 0x00, 0x00, 0x00, 0x00, 0x00, 0x00, 0x00, 0x00, 0x00, 0x00,
   0x00, 0x00, 0x00, 0x00, 0x00, 0x00, 0x00, 0x00, 0x00, 0x00, 0x00, 0x00,
   0xc0, 0x03, 0x00, 0x00, 0x30, 0x0c, 0x80, 0x03, 0x08, 0x10, 0x40, 0x04,
   0x04, 0x20, 0x20, 0x00, 0x00, 0xc0, 0x18, 0x00, 0xc0, 0x03, 0x07, 0x06,
   0x30, 0x0c, 0x80, 0x09, 0x08, 0x10, 0x40, 0x00, 0x04, 0x20, 0x20, 0x00,
   0x00, 0xc0, 0x18, 0x00, 0x80, 0x03, 0x07, 0x0e, 0x60, 0x0c, 0x80, 0x11,
   0x10, 0x10, 0x40, 0x00, 0x08, 0x20, 0x20, 0x00, 0x00, 0xc0, 0x18, 0x00,
   0x00, 0x00, 0x07, 0x00, 0x00, 0x00, 0x00, 0x00, 0x00, 0x00, 0x00, 0x00,
   0x00, 0x00, 0x00, 0x00, 0x00, 0x00, 0x00, 0x00, 0x00, 0x00, 0x00, 0x00,
   0x00, 0x00, 0x00, 0x00, 0x00, 0x00, 0x00, 0x00 };
