#define shower_rain_width 32
#define shower_rain_height 32
static unsigned char shower_rain_bits[] = {
   0x00, 0x00, 0x00, 0x00, 0x00, 0x00, 0x00, 0x00, 0x00, 0x00, 0x00, 0x00,
   0x00, 0x00, 0x00, 0x00, 0x00, 0x00, 0x00, 0x00, 0x00, 0x00, 0x00, 0x00,
   0x00, 0x00, 0x00, 0x00, 0xc0, 0x0f, 0x00, 0x00, 0x20, 0x70, 0x00, 0x00,
   0x10, 0x80, 0x00, 0x00, 0x08, 0x00, 0x01, 0x00, 0x08, 0x00, 0xf2, 0x00,
   0x04, 0x00, 0x0a, 0x03, 0x04, 0x00, 0x04, 0x04, 0x04, 0x00, 0x04, 0x08,
   0x04, 0x00, 0x00, 0x10, 0x02, 0x40, 0x00, 0x10, 0x02, 0x40, 0x00, 0x20,
   0x02, 0xe0, 0x00, 0x20, 0x02, 0xe0, 0x00, 0x20, 0x02, 0xf0, 0x21, 0x20,
   0x82, 0xf0, 0x21, 0x20, 0x82, 0xf0, 0x71, 0x10, 0xc4, 0xe1, 0x70, 0x10,
   0xc8, 0x01, 0xfa, 0x08, 0xf0, 0xff, 0xfd, 0x07, 0xe0, 0x03, 0x70, 0x00,
   0xc0, 0x01, 0x00, 0x00, 0x00, 0x00, 0x00, 0x00, 0x00, 0x00, 0x00, 0x00,
   0x00, 0x00, 0x00, 0x00, 0x00, 0x00, 0x00, 0x00 };
