#define snow_width 32
#define snow_height 32
static unsigned char snow_bits[] = {
   0x00, 0x00, 0x00, 0x00, 0x00, 0x00, 0x00, 0x00, 0x00, 0x00, 0x00, 0x00,
   0x00, 0x00, 0x00, 0x00, 0x00, 0x00, 0x00, 0x00, 0x00, 0x00, 0x00, 0x00,
   0x00, 0x40, 0x01, 0x00, 0x00, 0x20, 0x02, 0x00, 0x00, 0x44, 0x11, 0x00,
   0x00, 0x08, 0x08, 0x00, 0x00, 0x89, 0x48, 0x00, 0x00, 0x86, 0x30, 0x00,
   0x00, 0x90, 0x04, 0x00, 0x80, 0xa0, 0x82, 0x00, 0x40, 0x81, 0x40, 0x01,
   0x00, 0xfc, 0x1f, 0x00, 0x40, 0x81, 0x40, 0x01, 0x80, 0xa0, 0x82, 0x00,
   0x00, 0x90, 0x04, 0x00, 0x00, 0x86, 0x30, 0x00, 0x00, 0x89, 0x48, 0x00,
   0x00, 0x08, 0x08, 0x00, 0x00, 0x44, 0x11, 0x00, 0x00, 0x20, 0x02, 0x00,
   0x00, 0x40, 0x01, 0x00, 0x00, 0x00, 0x00, 0x00, 0x00, 0x00, 0x00, 0x00,
   0x00, 0x00, 0x00, 0x00, 0x00, 0x00, 0x00, 0x00, 0x00, 0x00, 0x00, 0x00,
   0x00, 0x00, 0x00, 0x00, 0x00, 0x00, 0x00, 0x00 };
