#define thunderstorm_width 32
#define thunderstorm_height 32
static unsigned char thunderstorm_bits[] = {
   0x00, 0x00, 0x00, 0x00, 0x00, 0x00, 0x00, 0x00, 0x00, 0x00, 0x00, 0x00,
   0x00, 0x00, 0x00, 0x00, 0x00, 0x00, 0x00, 0x00, 0x00, 0x00, 0x00, 0x00,
   0x00, 0x00, 0x00, 0x00, 0xc0, 0x0f, 0x00, 0x00, 0x20, 0x70, 0x00, 0x00,
   0x10, 0x80, 0x00, 0x00, 0x08, 0x00, 0x01, 0x00, 0x08, 0x00, 0xf2, 0x00,
   0x04, 0x00, 0x0a, 0x03, 0x04, 0x00, 0x04, 0x04, 0x04, 0x00, 0x04, 0x08,
   0x04, 0x00, 0x00, 0x10, 0x02, 0x00, 0x00, 0x10, 0x02, 0x00, 0x00, 0x20,
   0x02, 0x00, 0x00, 0x20, 0x02, 0x00, 0xe0, 0x20, 0x02, 0x3c, 0x70, 0x20,
   0x02, 0x1e, 0x38, 0x20, 0x02, 0x0e, 0x1c, 0x10, 0x04, 0x07, 0x70, 0x10,
   0x08, 0x87, 0x30, 0x08, 0xf0, 0x7f, 0xff, 0x07, 0x00, 0x1c, 0x08, 0x00,
   0x00, 0x0e, 0x00, 0x00, 0x00, 0x07, 0x00, 0x00, 0x00, 0x03, 0x00, 0x00,
   0x80, 0x01, 0x00, 0x00, 0x80, 0x00, 0x00, 0x00 };
